<svg xmlns="http://www.w3.org/2000/svg" xmlns:xlink="http://www.w3.org/1999/xlink" width="1001" height="669.584" viewBox="0 0 1001 669.584">
  <defs>
    <clipPath id="clip-path">
      <rect id="Rectangle_13886" data-name="Rectangle 13886" width="1001" height="669.584" transform="translate(-1 1835.416)" fill="#fff"/>
    </clipPath>
    <clipPath id="clip-path-2">
      <rect id="Rectangle_13217" data-name="Rectangle 13217" width="767.544" height="516.329" fill="none"/>
    </clipPath>
    <clipPath id="clip-path-5">
      <path id="Path_17607" data-name="Path 17607" d="M0,236.682l36.777,85.707,67.624,6.05s38.773-13.86,42.227-15.518c1.218-.585-.21-7.626-4.527-7.619-3.283.006-11.327,1.009-19.784,2.208L87,286.791c-5.885-15.264-15.923-44.238-15.923-44.238l-10.084-6.6-43.509-4.572Z" transform="translate(0 -231.379)" fill="none"/>
    </clipPath>
    <linearGradient id="linear-gradient" y1="2.262" x2="0.007" y2="2.262" gradientUnits="objectBoundingBox">
      <stop offset="0" stop-color="#223d67"/>
      <stop offset="0.208" stop-color="#213b63"/>
      <stop offset="0.449" stop-color="#203556"/>
      <stop offset="0.706" stop-color="#1f2e40"/>
      <stop offset="0.973" stop-color="#222323"/>
      <stop offset="1" stop-color="#222221"/>
    </linearGradient>
    <clipPath id="clip-path-8">
      <path id="Path_17633" data-name="Path 17633" d="M89.082,246.682l34.7,85.707,67.625,6.05s38.772-13.859,42.227-15.517c1.217-.586-.21-7.626-4.527-7.619-3.284.005-19.785,2.208-19.785,2.208l-35.316-20.719c-5.884-15.264-15.922-44.238-15.922-44.238L148,245.952l-43.508-4.572Z" transform="translate(-89.082 -241.38)" fill="none"/>
    </clipPath>
    <linearGradient id="linear-gradient-2" x1="-0.611" y1="2.159" x2="-0.604" y2="2.159" xlink:href="#linear-gradient"/>
    <clipPath id="clip-path-11">
      <path id="Path_17664" data-name="Path 17664" d="M181.647,259.165l35.194,88.009,65.085-3.193s39.219-9.848,42.674-11.507c1.218-.584-.209-7.625-4.527-7.618-3.284.005-39.313,3.91-39.313,3.91l-15.787-22.422-15.922-44.236-10.086-6.6-43.507-4.572Z" transform="translate(-181.647 -250.932)" fill="none"/>
    </clipPath>
    <linearGradient id="linear-gradient-3" x1="-1.26" y1="2.078" x2="-1.253" y2="2.078" xlink:href="#linear-gradient"/>
  </defs>
  <g id="Mask_Group_84" data-name="Mask Group 84" transform="translate(1 -1835.416)" clip-path="url(#clip-path)">
    <g id="Group_32174" data-name="Group 32174" transform="translate(0 -3860)">
      <g id="_6" data-name="6" transform="translate(136.133 5875.895)">
        <g id="Group_31650" data-name="Group 31650">
          <g id="Group_31649" data-name="Group 31649" clip-path="url(#clip-path-2)">
            <path id="Path_17527" data-name="Path 17527" d="M227.218,46.932s-3.179,252.037,2.953,258.5,407.205,34.987,409.485,28.411-.575-281.985-4.376-286.907-401.188-4.1-408.063,0" transform="translate(38.185 6.312)" fill="#fff"/>
            <path id="Path_17528" data-name="Path 17528" d="M320.016,148.414l20.123-10.378,2.85-1.47h-.737l28.42,12.049,4.011,1.7a.791.791,0,0,0,.885-.111l22.368-18.078,1.889-1.526a5.773,5.773,0,0,0,.514-.416c.217-.222.373-.121-.109.014,1.067-.3,2.152-.552,3.226-.827l16.964-4.344,12.911-3.307-.712-.183q13.908,10.533,27.815,21.068l4.018,3.043a.785.785,0,0,0,.885.111l29.944-14.487a39.669,39.669,0,0,0,4.9-2.37,2.179,2.179,0,0,0,.294-.143c.058.811-.9-.258-.3.153a8.02,8.02,0,0,0,1.861.622l18.058,6.034,14.948,4.993c.892.3,1.275-1.083.389-1.38l-31.848-10.64c-.957-.319-2.606-1.267-3.66-1.093a15.241,15.241,0,0,0-3.438,1.651l-17.939,8.68L464.6,144.526l.886.112-17.069-12.929-11.06-8.378-3.095-2.345c-.473-.358-.8-.694-1.432-.616a24.557,24.557,0,0,0-2.943.753l-5.863,1.5-14.884,3.812-5.984,1.532a31.623,31.623,0,0,0-3.166.811,4.711,4.711,0,0,0-1.283.876l-3.656,2.955L375,148.817l-.463.376.885-.112-24.88-10.548-5.755-2.44c-.7-.3-1.765-1-2.537-.76a22.853,22.853,0,0,0-3.395,1.752l-7.188,3.707-12.387,6.388c-.832.429-.095,1.665.737,1.235" transform="translate(53.79 17.447)" fill="#421b36"/>
            <path id="Path_17529" data-name="Path 17529" d="M344.272,134.15a3.937,3.937,0,1,1-3.824-3.964,3.9,3.9,0,0,1,3.824,3.964" transform="translate(56.739 18.871)" fill="#8380ff"/>
            <path id="Path_17530" data-name="Path 17530" d="M371.017,145.861a3.937,3.937,0,1,1-3.824-3.964,3.9,3.9,0,0,1,3.824,3.964" transform="translate(61.25 20.568)" fill="#8380ff"/>
            <path id="Path_17531" data-name="Path 17531" d="M392.78,128.844a3.937,3.937,0,1,1-3.824-3.964,3.9,3.9,0,0,1,3.824,3.964" transform="translate(64.921 18.102)" fill="#8380ff"/>
            <path id="Path_17532" data-name="Path 17532" d="M421.411,120.882a3.937,3.937,0,1,1-3.824-3.964,3.9,3.9,0,0,1,3.824,3.964" transform="translate(69.75 16.948)" fill="#8380ff"/>
            <path id="Path_17533" data-name="Path 17533" d="M448.576,142.415a3.937,3.937,0,1,1-3.824-3.964,3.9,3.9,0,0,1,3.824,3.964" transform="translate(74.332 20.069)" fill="#8380ff"/>
            <path id="Path_17534" data-name="Path 17534" d="M477.7,126.559a3.937,3.937,0,1,1-3.824-3.964,3.9,3.9,0,0,1,3.824,3.964" transform="translate(79.244 17.77)" fill="#8380ff"/>
            <path id="Path_17535" data-name="Path 17535" d="M319.487,71.589c8.918-.044,17.839.055,26.755.1q25.9.139,51.8.306l60.814.379q27,.168,53.994.324c10.163.056,20.325.137,30.487.134.453,0,.906,0,1.358,0a.716.716,0,0,0,0-1.431c-8.918.044-17.839-.055-26.755-.1q-25.9-.139-51.8-.306l-60.814-.379q-27-.168-53.994-.324c-10.163-.056-20.325-.137-30.487-.134-.453,0-.906,0-1.358,0a.716.716,0,0,0,0,1.431" transform="translate(53.768 10.169)" fill="#421b36"/>
            <path id="Path_17536" data-name="Path 17536" d="M319.474,80.124c8.918-.044,17.839.055,26.755.1q25.9.139,51.8.306,30.407.189,60.815.379,27,.168,53.992.324c10.163.056,20.325.137,30.488.134q.678,0,1.357,0a.716.716,0,0,0,0-1.431c-8.918.044-17.839-.055-26.755-.1q-25.9-.139-51.8-.306-30.408-.187-60.814-.379-27-.168-53.994-.324c-10.163-.056-20.325-.137-30.487-.134-.452,0-.906,0-1.358,0a.716.716,0,0,0,0,1.431" transform="translate(53.765 11.406)" fill="#421b36"/>
            <path id="Path_17537" data-name="Path 17537" d="M319.461,88.659c8.918-.044,17.839.055,26.755.1q25.9.139,51.8.306l60.815.38q27,.167,53.992.323c10.163.056,20.325.137,30.488.134q.678,0,1.357,0a.716.716,0,0,0,0-1.431c-8.918.044-17.837-.055-26.755-.1q-25.9-.139-51.8-.306L405.3,87.682q-27-.168-53.994-.324c-10.163-.056-20.325-.137-30.487-.134-.453,0-.906,0-1.358,0a.716.716,0,0,0,0,1.431" transform="translate(53.763 12.643)" fill="#421b36"/>
            <path id="Path_17538" data-name="Path 17538" d="M319.449,97.193c8.918-.044,17.839.055,26.755.1q25.9.139,51.8.306l60.814.38q27,.167,53.994.323c10.163.056,20.325.137,30.487.134q.68,0,1.358,0a.716.716,0,0,0,0-1.431c-8.918.044-17.839-.055-26.755-.1q-25.9-.139-51.8-.306-30.408-.187-60.814-.379-27-.168-53.994-.324c-10.163-.056-20.325-.136-30.487-.134-.453,0-.906,0-1.358,0a.716.716,0,0,0,0,1.431" transform="translate(53.761 13.881)" fill="#421b36"/>
            <path id="Path_17539" data-name="Path 17539" d="M318.384,168.361c8.916.2,17.829.54,26.743.832q25.885.845,51.768,1.717,30.39,1.017,60.78,2.037,26.982.9,53.963,1.794c10.157.334,20.314.692,30.472.965q.678.019,1.357.034a.716.716,0,0,0,0-1.431c-8.916-.2-17.829-.542-26.743-.832q-25.885-.845-51.768-1.717-30.39-1.017-60.78-2.037-26.98-.9-53.963-1.8c-10.157-.333-20.313-.69-30.472-.964q-.678-.019-1.357-.034a.716.716,0,0,0,0,1.431" transform="translate(53.581 24.197)" fill="#421b36"/>
            <path id="Path_17540" data-name="Path 17540" d="M318.134,176.892c8.9.2,17.808.784,26.7,1.231q25.848,1.3,51.692,2.669,30.513,1.6,61.025,3.2,26.828,1.407,53.658,2.782c10.213.518,20.429,1.1,30.652,1.458.451.016.9.031,1.354.041a.716.716,0,0,0,0-1.431c-8.9-.2-17.808-.784-26.7-1.231q-25.848-1.3-51.692-2.669-30.513-1.6-61.024-3.2-26.828-1.407-53.658-2.782c-10.214-.519-20.431-1.1-30.652-1.458-.452-.016-.9-.031-1.356-.041a.716.716,0,0,0,0,1.431" transform="translate(53.539 25.434)" fill="#421b36"/>
            <path id="Path_17541" data-name="Path 17541" d="M318.486,186.688c8.917.2,17.837.8,26.743,1.262q25.876,1.333,51.746,2.74,30.362,1.63,60.723,3.27,26.816,1.443,53.631,2.852c10.153.528,20.309,1.123,30.471,1.483.452.016.9.032,1.358.041a.716.716,0,0,0,0-1.431c-8.917-.2-17.837-.8-26.744-1.261q-25.874-1.333-51.745-2.74-30.362-1.632-60.723-3.271-26.816-1.443-53.631-2.852c-10.153-.528-20.309-1.123-30.471-1.483-.452-.016-.906-.031-1.358-.041a.716.716,0,0,0,0,1.431" transform="translate(53.599 26.854)" fill="#421b36"/>
            <path id="Path_17542" data-name="Path 17542" d="M318.236,195.219c11.455.266,22.93,1.533,34.338,2.51,14.909,1.275,29.81,2.636,44.73,3.792,5.321.412,10.659.872,16,1a.716.716,0,0,0,0-1.431c-11.455-.266-22.93-1.533-34.338-2.51-14.909-1.275-29.81-2.636-44.729-3.791-5.321-.413-10.659-.874-16-1a.716.716,0,0,0,0,1.431" transform="translate(53.557 28.09)" fill="#421b36"/>
            <path id="Path_17543" data-name="Path 17543" d="M565.124,25.3l60.443,0a.716.716,0,0,0,0-1.431l-60.443,0a.716.716,0,0,0,0,1.431" transform="translate(95.198 3.46)" fill="#421b36"/>
            <path id="Path_17544" data-name="Path 17544" d="M565.124,30.56l60.443,0a.716.716,0,0,0,0-1.431l-60.443,0a.716.716,0,0,0,0,1.431" transform="translate(95.198 4.222)" fill="#421b36"/>
            <path id="Path_17545" data-name="Path 17545" d="M565.581,35.705h21.751a.716.716,0,0,0,0-1.431l-13.186,0h-8.565a.716.716,0,0,0,0,1.431" transform="translate(95.275 4.968)" fill="#421b36"/>
            <path id="Path_17546" data-name="Path 17546" d="M579.014,38.964l15.13,25.318c.474.795,1.738.076,1.262-.721l-15.131-25.32c-.474-.795-1.738-.074-1.261.722" transform="translate(97.642 5.493)" fill="#421b36"/>
            <path id="Path_17547" data-name="Path 17547" d="M595.525,61.059a1.959,1.959,0,0,1-1.314,2.693,2.446,2.446,0,0,1-3.2-1.146,2.328,2.328,0,0,1,1.465-2.981,2.4,2.4,0,0,1,3.043,1.435" transform="translate(99.662 8.624)" fill="#421b36"/>
            <path id="Path_17548" data-name="Path 17548" d="M318.678,46.2l44.153-.223a.716.716,0,0,0,0-1.431l-44.153.223a.716.716,0,0,0,0,1.431" transform="translate(53.631 6.457)" fill="#421b36"/>
            <path id="Path_17549" data-name="Path 17549" d="M318.678,52.367l12.574-.223a.716.716,0,0,0,0-1.431l-12.574.223a.716.716,0,0,0,0,1.431" transform="translate(53.631 7.351)" fill="#421b36"/>
            <path id="Path_17550" data-name="Path 17550" d="M320.6,21.574c-.61.354-.76,12.758.574,13.4s79.141,1.049,80.652-1.432c.845-1.388-.091-13.56-.091-13.56S323.9,19.661,320.6,21.574" transform="translate(53.998 2.893)" fill="#8380ff"/>
            <rect id="Rectangle_13216" data-name="Rectangle 13216" width="419.72" height="255.854" transform="translate(347.239 0.574)" fill="none" stroke="#421b36" stroke-width="1"/>
          </g>
        </g>
        <g id="Group_31652" data-name="Group 31652">
          <g id="Group_31651" data-name="Group 31651" clip-path="url(#clip-path-2)">
            <path id="Path_17551" data-name="Path 17551" d="M407.68,217.162s-12.84,33.948-12.551,40.091,1.222,11.144,3.453,13.539,4.156,2.963,5.224,1.053-.691-3.292-1.885-5.686a28.519,28.519,0,0,1-1.852-6.546s3.105,5.9,6.251,7.741,4.322,3.2,5.435.144c0,0,4.077.439,3.522-3.365,0,0,2.256-.034,2.654-1.977.522-2.537-.347-3.209-2.143-6.657s-3.168-5.792-.654-10.283l-.471-12.187,4.034-10.668s-4.163-19.044-11.017-5.2" transform="translate(66.644 30.747)" fill="#ffae7a"/>
            <path id="Path_17552" data-name="Path 17552" d="M447.083,233.31l-68.639,17.883,13.264,45.971s67.815-15,67.916-18.1c.423-13.105-12.541-45.757-12.541-45.757" transform="translate(63.831 33.819)" fill="#421b36"/>
            <path id="Path_17553" data-name="Path 17553" d="M382.393,255.56s4.2,36.276,10.94,35.876,51.816-9.764,54.4-13.533-5.755-37.951-6.228-39.049-59.115,16.706-59.115,16.706" transform="translate(64.497 34.616)" fill="#fff"/>
            <path id="Path_17554" data-name="Path 17554" d="M405.529,233.8c-1.541,4.155-3.816,12.716-3.816,12.716l-.271,2.486,1.276,2.065,3-.576,2.233-4.252,2-5.073" transform="translate(67.71 33.891)" fill="#ffae7a"/>
            <path id="Path_17555" data-name="Path 17555" d="M387.98,258.838h-1.294l-10.354,1.6,7.111,21.232,7.864-4.29Z" transform="translate(63.474 37.52)" fill="#421b36"/>
            <path id="Path_17556" data-name="Path 17556" d="M438.794,105.429,424.826,130.77c-5.346,22.447-22.875,101.154-22.875,101.154l18.467,5.559s24.676-64.735,25.2-76.1-6.824-55.957-6.824-55.957" transform="translate(67.795 15.282)" fill="#8380ff"/>
            <path id="Path_17557" data-name="Path 17557" d="M467.468,38.656l-10.134-1-7.974,5.506-1.537,4.8-7.29,4.911-.9,10.169,8.891,6.47c.795-.081,15.539.387,15.539.387l7.7-26.154Z" transform="translate(74.151 5.458)" fill="#421b36"/>
            <path id="Path_17558" data-name="Path 17558" d="M477.164,41.94c4.2,2.553,17.669,15.932,17.669,15.932.221,2.041.264,6.137.264,6.137l3.062,6.659-3.744,9.312c-1.516.7-4.461,2.18-4.461,2.18l-1.488,3.184-6.6,4.926-8.177-1.251-5.3-49.255Z" transform="translate(79.002 5.764)" fill="#421b36"/>
            <path id="Path_17559" data-name="Path 17559" d="M482.427,51.757l-36.552,1.6.624,33.083,14.157,7.554,5.046,18.6,17.245-7.122-3.816-16.754c3.33-3.425,9.178-19.011,5.674-30.622-.671-2.221-1.1-4.428-2.378-6.335" transform="translate(75.204 7.502)" fill="#ffae7a"/>
            <path id="Path_17560" data-name="Path 17560" d="M465.727,42.267c12.078-.126,24.285,10.421,25.185,17.637A31.168,31.168,0,0,1,477.337,90.09c4.608-7.32,6.658-12.731,5.751-21.5,0,0-9.009,3.847-7.333-4.147.872-4.156,1.254-6.293.981-9.853-.882-11.483-20.217-10.121-20.217-10.121s-.028-2.1,9.209-2.2" transform="translate(76.999 6.127)" fill="#421b36"/>
            <path id="Path_17561" data-name="Path 17561" d="M479.355,65.109l5.648.334L486.96,69l-1.832,6.326-6.421.817Z" transform="translate(80.742 9.438)" fill="#ffae7a"/>
            <path id="Path_17562" data-name="Path 17562" d="M468.907,86.4l-10.048,3.825-.337-1.238,10.326-2.7a.065.065,0,0,1,.058.111" transform="translate(77.337 12.507)" fill="#421b36"/>
            <path id="Path_17563" data-name="Path 17563" d="M472.01,60.295s1.487,11.089,1.907,13.449c.152.853-.657-.579,0,0,0,0,2.834-.339,3.414-.993.2-.224-.181.24,0,0l3.891-8.227" transform="translate(79.612 8.74)" fill="#421b36"/>
            <path id="Path_17564" data-name="Path 17564" d="M477.334,65.084a34.879,34.879,0,0,1-8.767-4.54c-2.583-2.039-4.6-5-4.7-8.251-.06-2.108.681-4.163.783-6.27s.5-6.865-1.523-7.586l14.924,3.695" transform="translate(78.114 5.572)" fill="#421b36"/>
            <path id="Path_17565" data-name="Path 17565" d="M482.71,98.848c4.145.678,20.863,1.919,22.71,4,2.462,2.779,6.945,96.5,6.945,96.5-.281,1.021-2.572,3.057-2.572,3.057s-26.244,3.482-45.34,3.966c-12.3.311-26.083,1.431-31.221-1.373l-.126-12.493c-.189-18.265.439-85.908.439-85.908s9.564-4.658,10.724-4.97L461,97.371" transform="translate(73.044 14.114)" fill="#8380ff"/>
            <path id="Path_17566" data-name="Path 17566" d="M571.08,151.283l-36.518,39.873-34.6-35.448-4.987-53.552,15.175,12.521,25.05,41.031,19.94-18.044Z" transform="translate(83.486 14.808)" fill="#8380ff"/>
            <path id="Path_17567" data-name="Path 17567" d="M547.833,140.148s12.577-20.6,17.321-23.991,9.013-5.643,12.1-5.45,4.636,1.237,3.839,3.117-2.855,1.432-5.336,1.978a27.987,27.987,0,0,0-5.958,2.5s7.188-1.087,10.124-.7c3.394.448,4.2,1.861,2.583,4.441,0,0,2.711,2.659-.445,4.486a2.49,2.49,0,0,1,.079,3.055c-1.585,1.856-2.593,1.628-6.211,2.361s-6.166,1.122-8.039,5.546a11.589,11.589,0,0,1-9.35,6.79l-1.982,5.037a12.8,12.8,0,0,1-9.674-6.934c-.616-1.2.026-.334.949-2.238" transform="translate(92.2 16.046)" fill="#ffae7a"/>
            <path id="Path_17568" data-name="Path 17568" d="M560.582,122.607s2.668-8.635-.181-9.362c-3.165-.807-5.833-4.965-6.6-2.357-.79,2.689-6.036,20.986-1.433,26.04,2.452,2.691,8.213-14.32,8.213-14.32" transform="translate(92.85 15.951)" fill="#ffae7a"/>
            <path id="Path_17569" data-name="Path 17569" d="M560.95,114.769c.594,3.423-.587,6.736-1.716,9.931l-.321-.775A6.18,6.18,0,0,1,561,133.094c-.528.7-1.745.021-1.21-.693a4.831,4.831,0,0,0-1.58-7.291.688.688,0,0,1-.323-.775c1.031-2.918,2.26-6.064,1.716-9.2-.15-.864,1.2-1.235,1.351-.365" transform="translate(94.091 16.564)" fill="#421b36"/>
            <path id="Path_17570" data-name="Path 17570" d="M568.562,129.94a25.085,25.085,0,0,0-6.569-8.777c-.679-.584.314-1.55.991-.971a26.017,26.017,0,0,1,6.788,9.055.7.7,0,0,1-.251.939.713.713,0,0,1-.958-.246" transform="translate(94.751 17.396)" fill="#421b36"/>
            <path id="Path_17571" data-name="Path 17571" d="M579.386,121.412a32.156,32.156,0,0,0-13.186,2.41c-.82.341-1.534-.842-.707-1.185a33.816,33.816,0,0,1,13.893-2.6.686.686,0,0,1,0,1.373" transform="translate(95.317 17.398)" fill="#421b36"/>
            <path id="Path_17572" data-name="Path 17572" d="M573.326,115.9a20.084,20.084,0,0,0-6.063,3.016,20.962,20.962,0,0,0-3.928,3.313c-.588.671-1.574-.3-.99-.971a22.472,22.472,0,0,1,4.211-3.528,21.148,21.148,0,0,1,6.4-3.154.688.688,0,0,1,.373,1.324" transform="translate(94.818 16.605)" fill="#421b36"/>
            <path id="Path_17573" data-name="Path 17573" d="M579.233,125.323a29.057,29.057,0,0,0-10.85,2.652c-.81.376-1.522-.807-.707-1.185a30.873,30.873,0,0,1,11.557-2.839c.9-.042.9,1.33,0,1.373" transform="translate(95.687 17.967)" fill="#421b36"/>
            <path id="Path_17574" data-name="Path 17574" d="M437.566,396.509a30.255,30.255,0,0,0,2.892-1.67,35.047,35.047,0,0,0,9.763-13.148c2.3-5.761-4.109-28.238-4.654-28.8l25.028,5.855L468.961,385.4l3.724,26.48c-.667,4.374-31.448,8.31-42.439,8.939-17.075.975-22.936-6.294-22.979-8.439-.029-1.472,25.381-12.6,30.3-15.868" transform="translate(68.692 51.153)" fill="#421b36"/>
            <path id="Path_17575" data-name="Path 17575" d="M414.008,403.7l23.558-11.893a28.273,28.273,0,0,0,7.34-6.51s6.878,5.632,14.006,5.74a16.36,16.36,0,0,0,11.236-3.983c1.283,5.511,2.093,16.329,2.537,20.123,0,0-44.936,17.595-62.532,3.7l-2.885-3.2Z" transform="translate(68.692 55.851)" fill="#8380ff"/>
            <path id="Path_17576" data-name="Path 17576" d="M440.362,386.478l2.05-9.3,15.041,6.34-3.084,8.7s10.558-3.654,10.917-3.743v6.467l-9.1,6.053h-10.16l-6.286-5.361-5.534-3.362c1.338-.733,4.005-3.657,6.154-5.795" transform="translate(73.236 54.673)" fill="#8380ff"/>
            <path id="Path_17577" data-name="Path 17577" d="M470.8,387.363c.837,3.746,1.464,7.543,2,11.341.235,1.665.455,3.333.609,5.007.094,1.009.088,3.158.088,3.158l-.383,1.207c-3.317,1.055-15.594,4.792-15.594,4.792-7.511,1.5-15.125,2.632-22.753,3.383-7.448.734-15.572.948-22.354-2.654a16.2,16.2,0,0,1-3.328-2.309c-.989-.9-2.347-2.272-2.339-3.668.008-1.3,1.577-1.693,2.57-2.123,1.519-.658,3.123-1.221,4.573-2.017.711-.39,1.349.679.638,1.068-1.13.621-2.369,1.075-3.555,1.581-.584.25-2.826.855-2.95,1.512-.18.949,1.518,2.4,2.213,3a15.252,15.252,0,0,0,2.918,1.942c6.362,3.326,13.994,3.15,20.967,2.493s13.946-1.681,20.835-2.971c3.311-.621,6.616-1.306,9.868-2.182,2.226-.6,4.877-1.187,6.778-2.549.965-.692.7-1.682.611-2.858-.129-1.728-.349-3.451-.588-5.167-.542-3.9-1.186-7.805-2.045-11.656-.173-.776,1.045-1.108,1.219-.329" transform="translate(68.605 56.086)" fill="#8380ff"/>
            <path id="Path_17578" data-name="Path 17578" d="M532.127,367.044c-.279.822-.865,11.671,2.434,19.81s-17.4,10.607-17.4,10.607-3.751-22.182-5.569-28.9,20.532-1.521,20.532-1.521" transform="translate(86.271 52.927)" fill="#421b36"/>
            <path id="Path_17579" data-name="Path 17579" d="M554.615,408.318a26.215,26.215,0,0,1-.6,4.932c-.559,2.329-8.811,3.426-19.579,2.6s-16.782-5.892-17.2-6.44-1.213-8.6-1.213-8.6Z" transform="translate(87.035 58.099)" fill="#fff"/>
            <path id="Path_17580" data-name="Path 17580" d="M532.665,383.554c.386.318,16.264,20.933,13.845,17.675l8.111,10.412-2.3,6.1a.824.824,0,0,1-.983.5c-8.585-2.267-34.056-6.327-34.056-6.327-1.259-2.74-1.539-16.99-1.539-18.5s16.922-9.865,16.922-9.865" transform="translate(86.988 55.598)" fill="#8380ff"/>
            <path id="Path_17581" data-name="Path 17581" d="M436.861,189.059l72.908.056c.792,4.012,44.433,208.812,44.433,208.812l-36.7,3.047L476.924,240.759l-5.431,154.3-37.117-1.9s-3.872-173.625,2.485-204.1" transform="translate(73.068 27.405)" fill="#421b36"/>
            <path id="Path_17582" data-name="Path 17582" d="M508.592,188.624,511,195.64l-75.114-1.867,1.189-9.191Z" transform="translate(73.519 26.756)" fill="#8380ff"/>
            <path id="Path_17583" data-name="Path 17583" d="M456.289,103.8,452.81,92.524l30.265-1.478.039,13.491Z" transform="translate(76.374 13.198)" fill="#8380ff"/>
            <path id="Path_17584" data-name="Path 17584" d="M433.522,124.2l-3.792-1.967a.751.751,0,0,0-1,.256.717.717,0,0,0,.262.979l3.792,1.967a.751.751,0,0,0,1-.256.717.717,0,0,0-.262-.979" transform="translate(72.297 17.705)" fill="#421b36"/>
            <path id="Path_17585" data-name="Path 17585" d="M451.437,99.2a57.021,57.021,0,0,0,30.32.73.717.717,0,0,0-.388-1.38,55.512,55.512,0,0,1-29.544-.73.717.717,0,0,0-.388,1.38" transform="translate(76.056 14.175)" fill="#421b36"/>
            <path id="Path_17586" data-name="Path 17586" d="M405.087,216.729l-2.694,7.564,12.465,4.31,4.785-7.856Z" transform="translate(67.87 31.416)" fill="#8380ff"/>
          </g>
        </g>
        <g id="Group_31654" data-name="Group 31654">
          <g id="Group_31653" data-name="Group 31653" clip-path="url(#clip-path-2)">
            <path id="Path_17587" data-name="Path 17587" d="M165.411,423.385c-12.133,2.743-38.219,9.345-40.445,7.162-1.616-1.585-5.509-5.243-4.148-9.652a84.917,84.917,0,0,0,3.058-17.205l.744-32.077,25.829,2.594c-3.151,6.792-8.622,26.892-3.1,29.251.173.073.362.141.54.2,1.053.34,2.16.408,3.132.713,5.409,1.695,27.512,5.09,34.855,7.016,1.364.352-.746-5.036-.675-4.792.647,2.339-.963,12.517-19.793,16.786" transform="translate(20.33 53.867)" fill="#a0d2f4"/>
            <path id="Path_17588" data-name="Path 17588" d="M119.335,425.787l16.285,5.765,39.184-12.98,12.238-3.846c.136-.5,1.235-9.592,1.228-10.089a7.853,7.853,0,0,0-.573-1.6c-.795-1.632-.689-4.137-4.285-4.634-2.021-.275,1.056-.155-2.815.105-6.871.476-23.928,1.506-23.928,1.506l-9.432-8.467-1.15,10.014-10.825,4-4.234-4.091-7.162-3.119s-4.122,16.217-5.315,24.571c-.444,3.107.474,1.637.784,2.858" transform="translate(19.975 56.757)" fill="#421b36"/>
            <path id="Path_17589" data-name="Path 17589" d="M150.228,399.337a9.817,9.817,0,0,1,4.338-6.729,2.421,2.421,0,0,1,2.273-.54,1.568,1.568,0,0,1,.748,1.845,6.371,6.371,0,0,1-.982,1.871,12.032,12.032,0,0,1-1.317,1.624,12.368,12.368,0,0,1-3.9,2.677.746.746,0,0,1-.936-.448.733.733,0,0,1,.458-.917,10.52,10.52,0,0,0,4.779-4.205c.172-.291.555-.787.494-1.138,0,.029.083-.035-.036.017-.1.043-.2.08-.29.132a7.225,7.225,0,0,0-.728.458,8.266,8.266,0,0,0-2.189,2.268,8.412,8.412,0,0,0-1.266,3.372c-.133.919-1.577.632-1.444-.285" transform="translate(25.337 56.813)" fill="#fff"/>
            <path id="Path_17590" data-name="Path 17590" d="M150.367,400.266c-.547-1.384-1.093-2.772-1.515-4.2a14.239,14.239,0,0,1-.761-4.418,2.092,2.092,0,0,1,.959-1.827,1.719,1.719,0,0,1,1.921.21,2.8,2.8,0,0,1,.881,1.748,20.062,20.062,0,0,1,.292,2.254,23.184,23.184,0,0,1-.223,5.33c-.143.918-1.587.632-1.444-.285a21.456,21.456,0,0,0,.21-4.772,17.528,17.528,0,0,0-.291-2.355c-.048-.222-.29-1.151-.681-.822-.237.2-.159.687-.143.951.026.382.071.764.129,1.141a17.215,17.215,0,0,0,.5,2.219c.427,1.483.993,2.921,1.56,4.357.342.869-1.053,1.333-1.394.468" transform="translate(24.977 56.477)" fill="#fff"/>
            <path id="Path_17591" data-name="Path 17591" d="M111.215,251.078c1.773,2.29,9.437,20.961,9.437,20.961s44.855-8.3,56.708-5.626,20.394,14.107,18.907,24.808c-.8,5.735-29.159,113.686-29.159,113.686l-37.644-.6c-1.129-9.062,22.9-94.129,22.9-94.129L86.131,331.616C33.2,311.143,47.851,299.882,68,252.888Z" transform="translate(8.374 36.395)" fill="#8380ff"/>
            <path id="Path_17592" data-name="Path 17592" d="M63.719,183.342,56.994,148.8,71.28,137.468,96.1,151.776l11.229-.434,2.562,1.31,1.233,2.462-7.8,7.316.255,2.108c1.654,6.056-3.664,17.647-3.664,17.647-3.117.926-16.447,7.119-16.447,7.119l-4.108,14.481-22.743-3.905Z" transform="translate(9.55 19.927)" fill="#ffbfbf"/>
            <path id="Path_17593" data-name="Path 17593" d="M94.082,143.559,81.516,142.9l-10.183,2.367,7.9,16.493-5.815.452L66.759,185.86l-2.578,2.275-17.24-15.349-2.694-23.671,9.666-14.931,29.876-3.657,5.756,3.557,7.839,1.546Z" transform="translate(7.463 18.92)" fill="#421b36"/>
            <path id="Path_17594" data-name="Path 17594" d="M61.419,162.771l1.589-5.53L71.1,158.3l-3.022,11.14-4.539-2.146Z" transform="translate(10.359 22.793)" fill="#ffbfbf"/>
            <path id="Path_17595" data-name="Path 17595" d="M80.241,184.158q-1.858,7.107-3.715,14.213c-.206.784-1.4.306-1.2-.474q1.858-7.107,3.715-14.212c.206-.785,1.4-.307,1.2.473" transform="translate(12.701 26.568)" fill="#421b36"/>
            <path id="Path_17596" data-name="Path 17596" d="M78.667,190.6c1.353.489,9.939-1.222,17.861,5.476s27.856,93.053,23.784,98.877c-8.357,11.954-73.506,6.534-79.229-4.976-4.061-8.167-10.909-51.157-10.909-51.157L37.681,190.9Z" transform="translate(5.089 27.628)" fill="#421b36"/>
            <path id="Path_17597" data-name="Path 17597" d="M84.393,193l19.386,5.271s29.117,68.868,30.784,79.085-.484,18.023-6.68,19.463-14.618-3.786-19.5-8.4-26.538-57.208-29.609-66.636S84.393,193,84.393,193" transform="translate(13.176 27.976)" fill="#421b36"/>
            <path id="Path_17598" data-name="Path 17598" d="M84.443,186.881c-.287-1.561-2.2-2.172-3.8-2.439a99.644,99.644,0,0,0-21.384-1.235,4.042,4.042,0,0,0-2.49.7,3.947,3.947,0,0,0-1.03,2.377l-1.473,7.978L84.7,197.35c-.927-2.024.144-8.286-.258-10.469" transform="translate(9.153 26.539)" fill="#421b36"/>
            <path id="Path_17599" data-name="Path 17599" d="M43.453,320.159,21.43,434.676l7.368-.309,25.607-113.16Z" transform="translate(3.615 46.408)" fill="#421b36"/>
            <path id="Path_17600" data-name="Path 17600" d="M102.787,311.3s18.5,73.243,18.967,75.668l23.338-92.137Z" transform="translate(17.337 42.737)" fill="#8380ff"/>
            <path id="Path_17601" data-name="Path 17601" d="M119.005,375.342c.033.086.035.064.014-.042Z" transform="translate(20.072 54.401)" fill="#421b36"/>
            <path id="Path_17602" data-name="Path 17602" d="M118.752,397.053c2.254-12.064,5.163-24.023,7.954-35.977,3.279-14.038,6.642-28.058,9.864-42.109,1.192-5.2,2.4-10.4,3.405-15.634.173-.9-1.235-1.286-1.408-.38-2.114,11.048-4.864,21.992-7.439,32.941-3.366,14.312-6.781,28.615-10.007,42.958-1.333,5.923-2.662,11.854-3.777,17.821-.168.9,1.239,1.286,1.408.38" transform="translate(19.79 43.839)" fill="#421b36"/>
            <path id="Path_17603" data-name="Path 17603" d="M104.87,272.64c10.89-1.976,21.747-4.123,32.635-6.1.924-.167.532-1.547-.388-1.381-10.89,1.976-21.745,4.123-32.635,6.1-.923.167-.533,1.547.388,1.38" transform="translate(17.534 38.434)" fill="#421b36"/>
            <path id="Path_17604" data-name="Path 17604" d="M129.143,308.471c5.69-1.1,11.285-3.4,16.68-5.419a192.206,192.206,0,0,0,20.664-8.808c2.215-1.139,4.785-2.359,6.479-4.22.624-.686-.406-1.7-1.033-1.012a19.4,19.4,0,0,1-5.369,3.572c-3.006,1.594-6.118,3-9.246,4.341-6.9,2.964-13.948,5.645-21.086,8.007a60.725,60.725,0,0,1-7.477,2.161c-.922.177-.532,1.557.388,1.38" transform="translate(21.628 41.86)" fill="#421b36"/>
            <path id="Path_17605" data-name="Path 17605" d="M134.257,315.509,162.5,435.02l-7.342,2.253L122.709,317.6Z" transform="translate(20.697 45.734)" fill="#421b36"/>
            <path id="Path_17606" data-name="Path 17606" d="M81.982,321.423l7.483,125.994,7.928-.332-5.5-126.133Z" transform="translate(13.828 46.523)" fill="#421b36"/>
          </g>
        </g>
        <g id="Group_31656" data-name="Group 31656" transform="translate(0 274.117)">
          <g id="Group_31655" data-name="Group 31655" clip-path="url(#clip-path-5)">
            <rect id="Rectangle_13220" data-name="Rectangle 13220" width="147.846" height="97.06" fill="url(#linear-gradient)"/>
          </g>
        </g>
        <g id="Group_31658" data-name="Group 31658">
          <g id="Group_31657" data-name="Group 31657" clip-path="url(#clip-path-2)">
            <path id="Path_17608" data-name="Path 17608" d="M13.775,238.113a490,490,0,0,1,53.368,5.267c.92.142,1.316-1.237.388-1.38a493.412,493.412,0,0,0-53.756-5.318c-.94-.041-.937,1.39,0,1.431" transform="translate(2.205 34.308)" fill="#421b36"/>
            <path id="Path_17609" data-name="Path 17609" d="M69.667,264.622q5.1,12.692,10.533,25.254c3.233,7.44,6.2,15.469,11.475,21.8,9.141,10.965,25.9,14.108,39.583,11.841,8.977-1.486,17.255-5.608,25.884-8.28a.717.717,0,0,0-.388-1.381c-7.456,2.311-14.594,5.645-22.192,7.517a50.709,50.709,0,0,1-21.782.317c-6.865-1.353-13.517-4.219-18.433-9.213-5.639-5.724-8.6-13.546-11.754-20.727-3.994-9.106-7.809-18.287-11.517-27.508-.34-.847-1.754-.479-1.408.38" transform="translate(11.741 38.233)" fill="#421b36"/>
            <path id="Path_17610" data-name="Path 17610" d="M113.357,286.244c-3.106-2.032-5.289-5.4-7.176-8.474a113.705,113.705,0,0,1-6.806-13.349c-4.29-9.671-7.841-19.643-11.328-29.613-1.206-3.447-2.34-6.934-3.718-10.321a.76.76,0,0,0-.7-.524h-6.1a.716.716,0,0,0,0,1.431h6.1l-.7-.526c3.106,7.632,5.494,15.561,8.359,23.283,3.74,10.077,7.666,20.315,13.194,29.6,2.113,3.55,4.587,7.4,8.144,9.724.784.513,1.516-.726.737-1.235" transform="translate(12.957 32.464)" fill="#8380ff"/>
            <path id="Path_17611" data-name="Path 17611" d="M54.19,191.312l30.217.734a.716.716,0,0,0,0-1.431l-30.217-.734a.716.716,0,0,0,0,1.431" transform="translate(9.021 27.524)" fill="#8380ff"/>
          </g>
        </g>
        <g id="Group_31660" data-name="Group 31660">
          <g id="Group_31659" data-name="Group 31659" clip-path="url(#clip-path-2)">
            <path id="Path_17612" data-name="Path 17612" d="M178.838,140.113c.846-.76,11.864-3.885,11.864-3.885l4.682,1.036,1.561,4.066-1.512,4.227L199.7,149.6l-3.557,5.537c-1.815,1.382-3.9,2.448-5.5,4.061" transform="translate(30.164 19.747)" fill="#421b36"/>
            <path id="Path_17613" data-name="Path 17613" d="M164.158,188.359,178.9,140.01c18.22.695,22.186,15.054,22.186,15.054l11.531,1.321,1.078,2.948-6.539,8.131-4.718,16.168-15.911,5.476-2.932,9.7-22.326.594Z" transform="translate(27.2 20.295)" fill="#944d4d"/>
            <path id="Path_17614" data-name="Path 17614" d="M151.713,154.371l6.907-10.637,11.047-5.364,21.222,1.878c.873,11.216-10.115,21.431-15.537,31.359l-9.95,17.759-9.407-10.892Z" transform="translate(25.589 20.057)" fill="#421b36"/>
            <path id="Path_17615" data-name="Path 17615" d="M167.347,162.995l1.891-5.035,8.71,2.811-3.227,9.322c-1.6-.2-5.721-2.743-5.721-2.743Z" transform="translate(28.226 22.897)" fill="#944d4d"/>
            <path id="Path_17616" data-name="Path 17616" d="M158.62,155.89c-3.571-8.765-22.777-14.367-22.777-14.367l-12.008,5.712,2.843,16.4,17.577,2.531-15.47,9.378,16.943-5.642c-3.486,3.127-5.6,12.343-5.6,12.343l21.835-22.464Z" transform="translate(20.887 20.514)" fill="#421b36"/>
            <path id="Path_17617" data-name="Path 17617" d="M252.417,433.385c-12.133,2.742-38.219,9.345-40.445,7.163-1.616-1.586-5.509-5.244-4.148-9.653a84.917,84.917,0,0,0,3.058-17.205l.743-32.077,25.83,2.594c-3.152,6.792-8.622,26.892-3.1,29.251.173.073.362.141.54.2,1.053.34,2.16.408,3.132.713,5.409,1.695,27.512,5.09,34.855,7.016,1.364.352-.746-5.036-.675-4.792.647,2.339-.963,12.517-19.793,16.786" transform="translate(35.005 55.316)" fill="#944d4d"/>
            <path id="Path_17618" data-name="Path 17618" d="M206.232,435.812l16.285,5.765s16.1-7.355,20.288-8.263,18.9-4.717,18.9-4.717l13.841-6.514c.136-.5-.367-6.925-.374-7.422a7.763,7.763,0,0,0-.573-1.6c-.795-1.632-7.1-4.528-7.1-4.528l-9.577.1-14.351,1.4s-5.215-10.189-9.432-8.467l-1.15,10.014-10.825,4-4.234-4.091-7.162-3.119s-3.007,12.169-4.2,20.522c-.444,3.107-.64,5.686-.331,6.906" transform="translate(34.759 58.182)" fill="#421b36"/>
            <path id="Path_17619" data-name="Path 17619" d="M237.233,409.337a9.817,9.817,0,0,1,4.338-6.729,2.422,2.422,0,0,1,2.274-.54,1.569,1.569,0,0,1,.747,1.845,6.37,6.37,0,0,1-.982,1.871,12.028,12.028,0,0,1-1.317,1.624,12.355,12.355,0,0,1-3.9,2.677.746.746,0,0,1-.936-.448.734.734,0,0,1,.458-.917,10.514,10.514,0,0,0,4.779-4.205c.172-.291.555-.785.494-1.137,0,.027.083-.037-.036.016-.1.044-.2.08-.29.132a7.421,7.421,0,0,0-.728.458,8.253,8.253,0,0,0-2.189,2.269,8.4,8.4,0,0,0-1.266,3.371c-.133.921-1.577.632-1.444-.285" transform="translate(40.012 58.263)" fill="#fff"/>
            <path id="Path_17620" data-name="Path 17620" d="M237.372,410.266c-.547-1.384-1.093-2.772-1.515-4.2a14.24,14.24,0,0,1-.761-4.418,2.092,2.092,0,0,1,.96-1.827,1.72,1.72,0,0,1,1.921.21,2.8,2.8,0,0,1,.881,1.748,20.06,20.06,0,0,1,.292,2.254,23.182,23.182,0,0,1-.223,5.33c-.143.918-1.587.632-1.444-.285a21.456,21.456,0,0,0,.21-4.772,17.155,17.155,0,0,0-.292-2.355c-.046-.222-.289-1.151-.68-.822-.237.2-.159.687-.143.951.025.382.071.764.129,1.142a17.2,17.2,0,0,0,.5,2.219c.427,1.483.993,2.921,1.56,4.357.342.869-1.053,1.333-1.394.468" transform="translate(39.652 57.926)" fill="#fff"/>
            <path id="Path_17621" data-name="Path 17621" d="M206.718,260.768c1.773,2.29,7.084,19.925,7.084,19.925s38.709-6.91,50.561-4.234,20.4,14.107,18.907,24.808c-.8,5.735-29.158,113.686-29.158,113.686s-36.515,8.462-37.644-.6,22.9-94.129,22.9-94.129l-66.229,21.438c-52.929-20.473-38.28-31.735-18.127-78.728Z" transform="translate(23.048 37.799)" fill="#8380ff"/>
            <path id="Path_17622" data-name="Path 17622" d="M130.458,330.16,108.435,444.676l7.368-.308L141.41,331.208Z" transform="translate(18.289 47.858)" fill="#421b36"/>
            <path id="Path_17623" data-name="Path 17623" d="M144.843,206.159c-.922,1.319-2.374,57.959-2.374,57.959,2.631,7.89,9.563,18.355,9.563,18.355L206.214,280c5.147-1.008,4.451-4.431.982-11.712-2.45-5.14-2.264-36.386-2.264-36.386l-8.65-42.141s-32.21-1.941-39.868,2.22-11.571,14.173-11.571,14.173" transform="translate(24.03 27.442)" fill="#8380ff"/>
            <path id="Path_17624" data-name="Path 17624" d="M189.793,321.3s18.5,73.243,18.967,75.668L232.1,304.829Z" transform="translate(32.012 44.186)" fill="#8380ff"/>
            <path id="Path_17625" data-name="Path 17625" d="M200.254,191.22l-16.761-1.388c-5.552,1.728-3.127,27.87,1.862,36.6.22.384,11.251,26.061,22.165,42.769,5.676,8.689,14.551,12.37,17.891,12.324,15.022-3,21.085-8.041,9.645-26.557Z" transform="translate(30.413 27.517)" fill="#8380ff"/>
            <path id="Path_17626" data-name="Path 17626" d="M206.01,385.343c.032.086.035.064.014-.042Z" transform="translate(34.747 55.851)" fill="#421b36"/>
            <path id="Path_17627" data-name="Path 17627" d="M205.757,407.054c2.254-12.064,5.163-24.023,7.954-35.977,3.279-14.038,6.642-28.058,9.864-42.109,1.192-5.2,2.4-10.4,3.405-15.634.173-.9-1.235-1.286-1.408-.38-2.114,11.047-4.864,21.992-7.439,32.941-3.366,14.312-6.781,28.615-10.007,42.958-1.333,5.923-2.662,11.854-3.777,17.821-.168.9,1.239,1.286,1.408.38" transform="translate(34.464 45.289)" fill="#421b36"/>
            <path id="Path_17628" data-name="Path 17628" d="M191.875,282.641c10.89-1.975,21.747-4.123,32.636-6.1.923-.168.532-1.547-.389-1.381-10.89,1.976-21.745,4.123-32.635,6.1-.923.167-.533,1.547.388,1.38" transform="translate(32.208 39.884)" fill="#421b36"/>
            <path id="Path_17629" data-name="Path 17629" d="M216.148,318.472c5.69-1.1,11.285-3.4,16.68-5.419a192.2,192.2,0,0,0,20.664-8.808c2.215-1.139,4.785-2.359,6.479-4.22.624-.686-.406-1.7-1.033-1.012a19.4,19.4,0,0,1-5.369,3.572c-3.006,1.594-6.118,3-9.246,4.341-6.9,2.964-13.948,5.645-21.085,8.007a61,61,0,0,1-7.478,2.161c-.922.177-.532,1.557.388,1.38" transform="translate(36.303 43.31)" fill="#421b36"/>
            <path id="Path_17630" data-name="Path 17630" d="M221.262,325.509,249.51,445.021l-7.864.33L209.714,327.6Z" transform="translate(35.372 47.184)" fill="#421b36"/>
            <path id="Path_17631" data-name="Path 17631" d="M168.987,331.424l7.483,125.994,7.928-.332-5.5-126.133Z" transform="translate(28.502 47.973)" fill="#421b36"/>
            <path id="Path_17632" data-name="Path 17632" d="M152.225,272.163a124.7,124.7,0,0,0,55.229-3.265.717.717,0,0,0-.389-1.38,123.023,123.023,0,0,1-54.452,3.265c-.92-.149-1.315,1.231-.388,1.38" transform="translate(25.586 38.773)" fill="#421b36"/>
          </g>
        </g>
        <g id="Group_31662" data-name="Group 31662" transform="translate(89.082 285.965)">
          <g id="Group_31661" data-name="Group 31661" clip-path="url(#clip-path-8)">
            <rect id="Rectangle_13223" data-name="Rectangle 13223" width="145.769" height="97.059" transform="translate(0 0)" fill="url(#linear-gradient-2)"/>
          </g>
        </g>
        <g id="Group_31664" data-name="Group 31664">
          <g id="Group_31663" data-name="Group 31663" clip-path="url(#clip-path-2)">
            <path id="Path_17634" data-name="Path 17634" d="M100.78,248.114a490.022,490.022,0,0,1,53.368,5.267c.92.142,1.316-1.237.388-1.38a493.4,493.4,0,0,0-53.756-5.318c-.94-.041-.938,1.39,0,1.431" transform="translate(16.879 35.758)" fill="#421b36"/>
            <path id="Path_17635" data-name="Path 17635" d="M156.672,274.622q5.1,12.692,10.533,25.254c3.233,7.44,6.2,15.469,11.475,21.8,9.142,10.965,25.9,14.108,39.583,11.841,8.977-1.486,17.257-5.608,25.885-8.28a.717.717,0,0,0-.388-1.381c-7.457,2.311-14.6,5.643-22.192,7.517a50.71,50.71,0,0,1-21.782.317c-6.865-1.353-13.517-4.219-18.435-9.213-5.638-5.724-8.6-13.546-11.753-20.727-3.995-9.106-7.809-18.287-11.518-27.508-.34-.847-1.754-.479-1.408.38" transform="translate(26.416 39.683)" fill="#421b36"/>
            <path id="Path_17636" data-name="Path 17636" d="M194.176,190.429a567.4,567.4,0,0,0-57.03-9.054l-14.8,1.668-6.321,9.44.514,11.508,16.739,24.144c8.7,5.216,20.454,5.854,28.984.384a28.948,28.948,0,0,0,10.109-11.851,54.071,54.071,0,0,0,4.4-14.977" transform="translate(19.57 26.291)" fill="#8380ff"/>
          </g>
        </g>
        <g id="Group_31666" data-name="Group 31666">
          <g id="Group_31665" data-name="Group 31665" clip-path="url(#clip-path-2)">
            <path id="Path_17637" data-name="Path 17637" d="M326.37,216.847l4.868-8.077c-.408-1.818-7.855-20.67-7.323-24.518.954-6.864,2.513-12.383,5.259-14.851s4.966-2.916,5.968-.67-1.113,3.626-2.7,6.2a32.186,32.186,0,0,0-2.749,7.161s4.089-6.319,7.807-8.07,5.175-3.165,6.111.37c0,0,4.62-.09,3.61,4.122,0,0,2.525.26,2.776,2.479.325,2.9-.719,3.567-3.086,7.258s-4.146,6.187-1.785,11.472-.006,6.112-2.417,9.35l-4.86,11.359s-5.209,12.623-11.482-3.58" transform="translate(54.629 24.247)" fill="#cc8770"/>
            <path id="Path_17638" data-name="Path 17638" d="M328.282,183.861l11.091,3.883c.887.31,1.268-1.072.388-1.381l-11.091-3.881c-.887-.311-1.268,1.072-.388,1.38" transform="translate(55.286 26.445)" fill="#421b36"/>
            <path id="Path_17639" data-name="Path 17639" d="M332.822,185.97a26.581,26.581,0,0,1,10.233-11.059.72.72,0,0,0-.737-1.237,27.952,27.952,0,0,0-10.756,11.573c-.408.826.852,1.553,1.261.722" transform="translate(55.909 25.159)" fill="#421b36"/>
            <path id="Path_17640" data-name="Path 17640" d="M337.8,187.019a49.714,49.714,0,0,1,3.45-5.368,10.15,10.15,0,0,1,4.659-3.666c.889-.285.508-1.667-.389-1.38-4.416,1.416-6.805,6.017-8.981,9.691-.473.8.789,1.519,1.261.722" transform="translate(56.746 25.594)" fill="#421b36"/>
            <path id="Path_17641" data-name="Path 17641" d="M343.383,442.938c-12.132,2.742-38.22,9.345-40.445,7.162-1.616-1.585-5.508-5.243-4.148-9.652a84.917,84.917,0,0,0,3.058-17.205l.744-32.077,25.829,2.594c-3.151,6.792-8.621,26.892-3.1,29.251.174.073.362.141.54.2,1.053.34,2.16.408,3.132.713,5.409,1.695,27.513,5.09,34.857,7.016,1.363.35-.746-5.036-.677-4.792.647,2.339-.963,12.517-19.793,16.786" transform="translate(50.348 56.701)" fill="#cc8770"/>
            <path id="Path_17642" data-name="Path 17642" d="M297.177,445.34l16.285,5.765s16.1-7.355,20.288-8.263,18.9-4.717,18.9-4.717l13.808-11.417c.136-.5.006.5,0,0l-.914-4.114-7.1-4.528-9.577.1a114.551,114.551,0,0,0-14.351,1.4l-9.432-8.467-1.15,10.014-10.825,4-4.234-4.091-7.162-3.119-4.2,20.522Z" transform="translate(50.124 59.591)" fill="#421b36"/>
            <path id="Path_17643" data-name="Path 17643" d="M328.2,418.89a9.817,9.817,0,0,1,4.338-6.729,2.421,2.421,0,0,1,2.273-.54,1.569,1.569,0,0,1,.748,1.845,6.373,6.373,0,0,1-.982,1.871,12.032,12.032,0,0,1-1.317,1.624,12.369,12.369,0,0,1-3.9,2.677.746.746,0,0,1-.936-.448.733.733,0,0,1,.458-.917,10.513,10.513,0,0,0,4.779-4.205c.172-.291.555-.785.494-1.138,0,.029.083-.036-.036.017-.1.044-.2.08-.29.132a7.438,7.438,0,0,0-.728.458,8.255,8.255,0,0,0-2.189,2.269,8.4,8.4,0,0,0-1.266,3.371c-.133.921-1.577.632-1.444-.285" transform="translate(55.355 59.648)" fill="#fff"/>
            <path id="Path_17644" data-name="Path 17644" d="M328.339,419.819c-.547-1.384-1.093-2.772-1.515-4.2a14.24,14.24,0,0,1-.761-4.418,2.092,2.092,0,0,1,.96-1.827,1.72,1.72,0,0,1,1.921.21,2.8,2.8,0,0,1,.881,1.748,20.066,20.066,0,0,1,.292,2.254,23.184,23.184,0,0,1-.223,5.33c-.143.918-1.587.632-1.444-.285a21.458,21.458,0,0,0,.21-4.772,17.529,17.529,0,0,0-.291-2.355c-.048-.222-.29-1.151-.681-.822-.237.2-.159.687-.143.951.025.382.071.764.129,1.142a17.2,17.2,0,0,0,.5,2.219c.427,1.482.993,2.921,1.56,4.357.342.869-1.053,1.333-1.394.468" transform="translate(54.995 59.311)" fill="#fff"/>
            <path id="Path_17645" data-name="Path 17645" d="M297.685,270.321c1.773,2.29,7.084,19.924,7.084,19.924l52.583-8.39,16.885,28.964s-24.789,109.55-29.158,113.686-36.515,8.462-37.644-.6,22.9-94.129,22.9-94.129L264.1,351.215c-52.929-20.473-38.28-31.735-18.127-78.728Z" transform="translate(38.391 39.184)" fill="#421b36"/>
            <path id="Path_17646" data-name="Path 17646" d="M221.425,339.713,199.4,454.229l7.368-.308,25.607-113.16Z" transform="translate(33.632 49.243)" fill="#421b36"/>
            <path id="Path_17647" data-name="Path 17647" d="M235.935,215.712c-.922,1.319-5,50.069-2.374,57.96s9.563,18.354,9.563,18.354l61.822-3.865c2.43-1.1,2.586-2.229,2.586-2.229l3.735-43.441-23.895-43.172s-32.21-1.941-39.868,2.22-11.571,14.173-11.571,14.173" transform="translate(39.247 28.827)" fill="#8380ff"/>
            <path id="Path_17648" data-name="Path 17648" d="M280.759,330.851s18.5,73.243,18.967,75.668l23.338-92.137Z" transform="translate(47.354 45.571)" fill="#421b36"/>
            <path id="Path_17649" data-name="Path 17649" d="M357.712,208.3c-2.286-2.385-23.343-4.37-23.871-2.946s-4.173,31.26-4.173,31.26-33.2-29.481-39.773-34.094c-7.152-5.024-16.248-3.913-20.8-.353s7.266,27.119,15.112,33.516c.345.282,44.662,38.021,44.662,38.021l8.986,1.124,12.237-8.992Z" transform="translate(45.216 28.862)" fill="#8380ff"/>
            <path id="Path_17650" data-name="Path 17650" d="M297.02,395.166c-.1,0-.144-.109-.159-.148l-.016-.047.207-.616.106.545c.015.089.041.223-.094.26a.227.227,0,0,1-.044.006" transform="translate(50.068 57.164)" fill="#8380ff"/>
            <path id="Path_17651" data-name="Path 17651" d="M296.724,416.607c2.254-12.064,5.163-24.023,7.954-35.977,3.279-14.038,6.642-28.058,9.864-42.109,1.192-5.2,2.4-10.4,3.405-15.634.173-.9-1.235-1.286-1.408-.38-2.114,11.047-4.864,21.992-7.439,32.941-3.366,14.312-6.781,28.615-10.007,42.958-1.333,5.923-2.662,11.854-3.777,17.821-.168.9,1.239,1.286,1.408.38" transform="translate(49.807 46.674)" fill="#8380ff"/>
            <path id="Path_17652" data-name="Path 17652" d="M282.842,292.194c10.888-1.976,21.747-4.123,32.635-6.1.924-.167.533-1.547-.389-1.381-10.89,1.976-21.745,4.123-32.634,6.1-.924.167-.533,1.547.388,1.38" transform="translate(47.551 41.269)" fill="#8380ff"/>
            <path id="Path_17653" data-name="Path 17653" d="M307.115,328.025c5.69-1.1,11.285-3.4,16.68-5.419A192.21,192.21,0,0,0,344.46,313.8c2.215-1.139,4.785-2.357,6.479-4.22.624-.686-.406-1.7-1.033-1.012a19.4,19.4,0,0,1-5.369,3.572c-3.006,1.594-6.118,3-9.246,4.34-6.9,2.964-13.948,5.645-21.086,8.007a60.72,60.72,0,0,1-7.477,2.161c-.922.177-.532,1.557.388,1.38" transform="translate(51.646 44.695)" fill="#8380ff"/>
            <path id="Path_17654" data-name="Path 17654" d="M312.229,335.062l28.248,119.512-7.864.33L300.681,337.154Z" transform="translate(50.715 48.569)" fill="#421b36"/>
            <path id="Path_17655" data-name="Path 17655" d="M332.273,455.579l-.12-.445L300.059,336.788l12.717-2.3.126.532L341.309,455.2Zm-30.76-117.89L333.161,454.4l6.692-.279L311.889,335.808Z" transform="translate(50.61 48.485)" fill="#8380ff"/>
            <path id="Path_17656" data-name="Path 17656" d="M259.954,340.977l7.483,125.994,7.928-.332-5.5-126.133Z" transform="translate(43.845 49.358)" fill="#421b36"/>
            <path id="Path_17657" data-name="Path 17657" d="M251.481,194.584l17.472-48.274c18.338,1.637,21.564,16.4,21.564,16.4s10.465,2.312,14.319,2.955L303,167.685l-7.013,5.9-.02,2.013-5.629,16.154s-10.547,5.883-16.343,4.739l-.164,11.093-21.16,2.044Z" transform="translate(42.416 21.208)" fill="#cc8770"/>
            <path id="Path_17658" data-name="Path 17658" d="M241.226,159.478l7.539-10.432,12.405-4.954,19.23,4.848c.276,11.417-10.26,19.437-16.263,29.226-1.8,2.928-.609,12.828-10.579,16.739l.6-1.669c-4.171-4.259-20.755-6.853-12.937-33.758" transform="translate(40.338 20.887)" fill="#421b36"/>
            <path id="Path_17659" data-name="Path 17659" d="M256.167,169.134l2.178-5.01,8.633,3.3-5.659,9.084-3.72-2.872Z" transform="translate(43.207 23.79)" fill="#cc8770"/>
            <path id="Path_17660" data-name="Path 17660" d="M244.7,153.351l-4.907,8.082-1.407,5.405c-1.214,20.338-2.953,80.4-2.953,80.4l5.1,10.606,22.018,1.1c4.068-3.4,3.366-1.841,4.068-3.4.719-1.6.241-3.373-.2-5.022-3.972-15.018-3.678-30.74-3.362-46.276q.238-11.773.478-23.546l-14.142-32.276Z" transform="translate(39.709 21.514)" fill="#421b36"/>
            <path id="Path_17661" data-name="Path 17661" d="M254.046,188.585l6.663-13.105c1,20.253,11.877,59.491,11.877,59.491l1.357,6.728-4.314,4.754a130.417,130.417,0,0,1-15.583-57.867" transform="translate(42.849 25.437)" fill="#421b36"/>
            <path id="Path_17662" data-name="Path 17662" d="M284.072,203.03l-9.034-8.854c-8.278-6.076-14.276-19.81-14.276-19.81-11.93,15.266-6.654,25.858,3.631,36.642Z" transform="translate(42.828 25.275)" fill="#421b36"/>
            <path id="Path_17663" data-name="Path 17663" d="M243.192,282.029a112.032,112.032,0,0,0,24.287.878,183.3,183.3,0,0,0,25.741-3.391c4.385-.893,8.733-1.951,13.019-3.224a.717.717,0,0,0-.388-1.38,164.73,164.73,0,0,1-48.927,6.813,93.613,93.613,0,0,1-13.344-1.075c-.92-.148-1.315,1.231-.388,1.38" transform="translate(40.929 39.845)" fill="#421b36"/>
          </g>
        </g>
        <g id="Group_31668" data-name="Group 31668" transform="translate(220.84 297.175)">
          <g id="Group_31667" data-name="Group 31667" clip-path="url(#clip-path-11)">
            <rect id="Rectangle_13226" data-name="Rectangle 13226" width="144.171" height="96.242" transform="translate(0 0)" fill="url(#linear-gradient-3)"/>
          </g>
        </g>
        <g id="Group_31670" data-name="Group 31670">
          <g id="Group_31669" data-name="Group 31669" clip-path="url(#clip-path-2)">
            <path id="Path_17665" data-name="Path 17665" d="M191.747,257.667a490.023,490.023,0,0,1,53.368,5.267c.92.142,1.316-1.237.388-1.38a493.412,493.412,0,0,0-53.756-5.318c-.94-.041-.938,1.39,0,1.431" transform="translate(32.222 37.142)" fill="#421b36"/>
            <path id="Path_17666" data-name="Path 17666" d="M247.638,284.175q5.1,12.692,10.533,25.255c3.233,7.439,6.2,15.468,11.475,21.8,9.142,10.965,25.9,14.108,39.583,11.841,8.977-1.486,17.258-5.608,25.886-8.28a.717.717,0,0,0-.389-1.381c-7.457,2.311-14.6,5.643-22.192,7.517a50.692,50.692,0,0,1-21.782.318c-6.865-1.354-13.517-4.219-18.433-9.213-5.636-5.725-8.6-13.547-11.752-20.728-4-9.1-7.811-18.287-11.521-27.508-.34-.847-1.754-.479-1.408.38" transform="translate(41.759 41.068)" fill="#421b36"/>
          </g>
        </g>
        <g id="Group_31672" data-name="Group 31672">
          <g id="Group_31671" data-name="Group 31671" clip-path="url(#clip-path-2)">
            <path id="Path_17667" data-name="Path 17667" d="M225.134,98.4c7.455-4.628,17.564-5.124,26.086-1.82l-.054-.031c6.339,2.03,13.763,6.7,16.552,12.432a25.157,25.157,0,0,1,1.347,18.207c-2.62,8.655-10.155,15.684-19.282,18.2l2.7,9.859-9.02-8.891c-.109,0-.214.018-.323.022-12,.292-24.087-7.609-28.132-18.388A25.02,25.02,0,0,1,225.134,98.4" transform="translate(36.01 13.691)" fill="#8380ff"/>
            <rect id="Rectangle_13228" data-name="Rectangle 13228" width="67.753" height="53.054" transform="translate(243.474 108.144)" fill="#8380ff"/>
            <path id="Path_17668" data-name="Path 17668" d="M237.21,126.99a2.916,2.916,0,0,1,1.088.242,2.654,2.654,0,0,1,1.048.785,2.291,2.291,0,0,1,.452,1.509,1.912,1.912,0,0,1-.369,1.227,2.106,2.106,0,0,1-.9.664,2.917,2.917,0,0,1-1.027.2,2.737,2.737,0,0,1-1.828-.685,2.1,2.1,0,0,1-.8-1.65,2.525,2.525,0,0,1,.657-1.589,2.122,2.122,0,0,1,1.684-.705" transform="translate(39.614 18.408)" fill="#a0d2f4"/>
            <path id="Path_17669" data-name="Path 17669" d="M235.14,127.37v-3.706l2.868-3.87,8.12-.99,1.649-4.85-2.64-5.172-5.939-2.748h-5.939v-3.395H238.5l9.276,3.556,2.97,6.143-1.155,7.456-1.65,2.4-7.094,1.467-2.347.8v2.909Z" transform="translate(39.343 14.878)" fill="#a0d2f4"/>
          </g>
        </g>
        <path id="Path_17670" data-name="Path 17670" d="M140.588,130.078H89.014V90.636h51.574Z" transform="translate(0 14.397)" fill="#a0d2f4"/>
        <g id="Group_31674" data-name="Group 31674">
          <g id="Group_31673" data-name="Group 31673" clip-path="url(#clip-path-2)">
            <path id="Path_17671" data-name="Path 17671" d="M131.013,99c-1.163.938-15.975,21.246-15.975,21.246s-9.368-12.464-9.559-12.842l-4.488,3.439,14.169,16.179,20.979-24.612Z" transform="translate(17.034 14.351)" fill="#8380ff"/>
            <path id="Path_17672" data-name="Path 17672" d="M97.776,142.5l3.751-13.486H117.16Z" transform="translate(16.492 18.701)" fill="#a0d2f4"/>
          </g>
        </g>
      </g>
    </g>
  </g>
</svg>
