<svg xmlns="http://www.w3.org/2000/svg" xmlns:xlink="http://www.w3.org/1999/xlink" width="1001" height="669.584" viewBox="0 0 1001 669.584">
  <defs>
    <clipPath id="clip-path">
      <rect id="Rectangle_12544" data-name="Rectangle 12544" width="1001" height="669.584" transform="translate(-1 1835.416)" fill="#fff"/>
    </clipPath>
    <clipPath id="clip-path-2">
      <rect id="Rectangle_12188" data-name="Rectangle 12188" width="805.964" height="432.991" fill="none"/>
    </clipPath>
    <clipPath id="clip-path-3">
      <rect id="Rectangle_12180" data-name="Rectangle 12180" width="91.381" height="122.472" fill="none"/>
    </clipPath>
    <clipPath id="clip-path-4">
      <rect id="Rectangle_12182" data-name="Rectangle 12182" width="88.961" height="119.428" fill="none"/>
    </clipPath>
  </defs>
  <g id="Mask_Group_82" data-name="Mask Group 82" transform="translate(1 -1835.416)" clip-path="url(#clip-path)">
    <g id="Group_31122" data-name="Group 31122" transform="translate(0 -2250)">
      <g id="_4" data-name="4" transform="translate(97.713 4314.064)">
        <rect id="Rectangle_12167" data-name="Rectangle 12167" width="59.391" height="124.428" transform="translate(196.63 232.316)" fill="#090028"/>
        <g id="Group_30661" data-name="Group 30661">
          <g id="Group_30660" data-name="Group 30660" clip-path="url(#clip-path-2)">
            <path id="Path_16309" data-name="Path 16309" d="M108.65,396.695V226.243a14.664,14.664,0,0,1,14.664-14.664H453.8a14.664,14.664,0,0,1,14.664,14.664V396.695Z" transform="translate(-61.188 -119.154)" fill="#090028"/>
            <path id="Path_16310" data-name="Path 16310" d="M468.468,635.345v27.314c0,5.681-3.755,10.287-8.388,10.287H108.65v-37.6Z" transform="translate(-61.188 -357.804)" fill="#090028"/>
            <path id="Path_16311" data-name="Path 16311" d="M127.931,398.835V236.241a7.86,7.86,0,0,1,8-7.718H462.909a7.86,7.86,0,0,1,8,7.718V398.835Z" transform="translate(-72.046 -128.696)" fill="#fce6cf"/>
            <rect id="Rectangle_12168" data-name="Rectangle 12168" width="164.223" height="10.648" transform="translate(145.988 349.646)" fill="#090028"/>
            <path id="Path_16312" data-name="Path 16312" d="M127.851,434.172H470.893c4.862,0,8.818-4.808,8.818-10.717V225.689A15.111,15.111,0,0,0,464.617,210.6v.86a14.251,14.251,0,0,1,14.234,14.234V423.455c0,5.435-3.57,9.857-7.958,9.857H127.851Z" transform="translate(-72.001 -118.6)" fill="#04020f"/>
            <rect id="Rectangle_12169" data-name="Rectangle 12169" width="0.86" height="14.038" transform="translate(136.624 285.188) rotate(-35.653)" fill="#04020f"/>
            <rect id="Rectangle_12170" data-name="Rectangle 12170" width="0.86" height="13.787" transform="matrix(0.805, -0.594, 0.594, 0.805, 136.626, 290.894)" fill="#04020f"/>
            <rect id="Rectangle_12171" data-name="Rectangle 12171" width="0.859" height="8.212" transform="translate(237.3 318.021) rotate(-29.745)" fill="#04020f"/>
            <rect id="Rectangle_12172" data-name="Rectangle 12172" width="0.859" height="7.281" transform="matrix(0.862, -0.506, 0.506, 0.862, 237.008, 322.971)" fill="#04020f"/>
            <path id="Path_16313" data-name="Path 16313" d="M126.947,398.711h343.4v-.86H127.807V235.687a7.438,7.438,0,0,1,7.565-7.287v-.86a8.3,8.3,0,0,0-8.425,8.147Z" transform="translate(-71.492 -128.143)" fill="#04020f"/>
            <path id="Path_16314" data-name="Path 16314" d="M659.473,145.757l7.65-16.507,7.728,1.055,6.57-4.826,3.31,2.891,5.184,4.368,3.655,3.936,1.786,4.548-17.812,19.1Z" transform="translate(-371.393 -70.666)" fill="#fdac98"/>
            <path id="Path_16315" data-name="Path 16315" d="M392.2,464.594l1.185-105.048-2.54-13.493-61.59,20.571s1.9,44.4,5.892,97.97Z" transform="translate(-185.425 -194.885)" fill="#194596"/>
            <path id="Path_16316" data-name="Path 16316" d="M286.228,452.167l6.922-74.1,11.705-54.081-79.625,31.526s-.569,43.628.4,96.654Z" transform="translate(-126.749 -182.458)" fill="#2e53b2"/>
            <path id="Path_16317" data-name="Path 16317" d="M622.867,0l60.69,101.1-5.051,3.839-48.059-89.1Z" transform="translate(-350.777 0)" fill="#49263e"/>
            <path id="Path_16318" data-name="Path 16318" d="M691.041,132.1l4.785-2.865,10.727,16.107,1.391,4.365s-1.23,2.309-2.025,2.214-3.2-1.932-3.2-1.932l-.625-2.41-.969-.27-1.264-1.166-.627-1.912-1.345.606-1.913-.758-.882-1.782-.379-.173-5.7-9.158Z" transform="translate(-388.03 -72.78)" fill="#fdac98"/>
            <path id="Path_16319" data-name="Path 16319" d="M703.686,138.346a.312.312,0,0,1-.231-.522l5.768-6.339a.312.312,0,0,1,.463.42l-5.768,6.339a.312.312,0,0,1-.231.1" transform="translate(-396.116 -73.99)" fill="#ae253d"/>
            <path id="Path_16320" data-name="Path 16320" d="M715,159.736a1.944,1.944,0,0,1-1.242-.438,3.013,3.013,0,0,1-1.438-3.2.313.313,0,0,1,.61.135,2.43,2.43,0,0,0,1.176,2.553,1.422,1.422,0,0,0,1.225.3c3.094-.589,7.645-8.451,7.69-8.531a.312.312,0,0,1,.542.311c-.192.335-4.741,8.191-8.116,8.834a2.394,2.394,0,0,1-.448.044" transform="translate(-401.113 -84.695)" fill="#ae253d"/>
            <path id="Path_16321" data-name="Path 16321" d="M705.106,151.913a2.74,2.74,0,0,1-1.765-.585,3.8,3.8,0,0,1-1.223-2.432.312.312,0,0,1,.622-.052,3.224,3.224,0,0,0,.994,2,2.32,2.32,0,0,0,1.835.412c2.273-.311,6.611-7.119,8.09-9.716a.312.312,0,1,1,.543.309c-.223.392-5.508,9.609-8.549,10.026a4.05,4.05,0,0,1-.548.039" transform="translate(-395.408 -79.621)" fill="#ae253d"/>
            <path id="Path_16322" data-name="Path 16322" d="M298.744,332.438h0a1.724,1.724,0,0,0,.356-1.081l-1.908-107.014,46,24.194,54.465-64.645-28.7-24.155-36.217,39.7-42.43-38.49c-5.657-3.435-49.148-4.178-49.148-4.178L186,159.081l-29.7,85.668s0,42.278,19.6,45.309l7.13.152.548,42.228Z" transform="translate(-88.023 -88.289)" fill="#fdac98"/>
            <path id="Path_16323" data-name="Path 16323" d="M358.884,159.741l-36.217,39.7-42.43-38.49c-2.126-1.29-9.591-2.2-18.085-2.835l-25.5,60.744-38.5-62.085a104.81,104.81,0,0,0-22.228,2.306L138.416,265.036l22.694,24.925,11.847.252.548,42.228H288.672l.367-.478L287.12,224.347l46,24.194L387.588,183.9c-9.244-21.215-28.7-24.156-28.7-24.156" transform="translate(-77.951 -88.292)" fill="#fdc527"/>
            <rect id="Rectangle_12173" data-name="Rectangle 12173" width="52.827" height="66.827" transform="translate(145.974 142.62)" fill="#090028"/>
            <rect id="Rectangle_12174" data-name="Rectangle 12174" width="29.658" height="2.526" transform="translate(158.664 140.095)" fill="#d6e8f4"/>
            <path id="Path_16324" data-name="Path 16324" d="M396.442,385.212l-.6-5.646,1.114-5.067-2.517-.206c-2.624,1.019-10.625,4.158-15.512,6.416l-.812-9.106-2.915-1.528-7.712,9.025-19.367-1.861L351,403.928l25.44-.333L394.3,396.84l2.268-5.594Z" transform="translate(-196.048 -208.413)" fill="#fdac98"/>
            <path id="Path_16325" data-name="Path 16325" d="M440.806,395.692a.4.4,0,0,1-.184-.769,49.29,49.29,0,0,0,6.947-3.967.4.4,0,1,1,.453.661,49.113,49.113,0,0,1-7.095,4.046.4.4,0,0,1-.121.029" transform="translate(-248.004 -220.133)" fill="#ae253d"/>
            <path id="Path_16326" data-name="Path 16326" d="M441.714,408.323a.4.4,0,0,1-.135-.786,24.865,24.865,0,0,0,6.772-3.132.4.4,0,0,1,.457.658,25.234,25.234,0,0,1-7.021,3.248.428.428,0,0,1-.073.012" transform="translate(-248.515 -227.706)" fill="#ae253d"/>
            <path id="Path_16327" data-name="Path 16327" d="M444.783,421.5a.4.4,0,0,1-.146-.783,21.386,21.386,0,0,0,5.885-3.018.4.4,0,0,1,.484.639,21.855,21.855,0,0,1-6.14,3.146.379.379,0,0,1-.084.016" transform="translate(-250.243 -235.19)" fill="#ae253d"/>
            <path id="Path_16328" data-name="Path 16328" d="M241.289,318.042l-.806-.954,7.884-6.666,3.01-36.551,1.245.1-3.052,37.068Z" transform="translate(-135.432 -154.235)" fill="#04020f"/>
            <path id="Path_16329" data-name="Path 16329" d="M321.625,362.712l19.488,1.248s3.94,12.426-.8,37.62c-.46,2.447-1.428,6.629-1.428,6.629S319.1,409.786,316,403.358c-1.95-4.036,2.313-21.471,2.313-21.471Z" transform="translate(-177.671 -204.267)" fill="#614dd4"/>
            <path id="Path_16330" data-name="Path 16330" d="M284.158,405.534,217.444,403.5l.038-1.25,65.708,2.006c.939-3.888,6.956-30.052,2.265-43.01l-49.5-3.171.079-1.247,50.3,3.222.144.373c5.465,14.166-1.884,43.39-2.2,44.627Z" transform="translate(-122.457 -200.952)" fill="#04020f"/>
            <path id="Path_16331" data-name="Path 16331" d="M306.826,187.742a29.566,29.566,0,0,1-12.86-17.1l1.2-.339a28.312,28.312,0,0,0,12.318,16.374Z" transform="translate(-165.552 -95.911)" fill="#04020f"/>
            <path id="Path_16332" data-name="Path 16332" d="M329.922,51.456s8.826-3.754,16.662-1.06c4.537,1.56,7.551,10.671,7.551,10.671v4.692L329.983,55.445s-3.82,1.807-3.514,1.258,3.453-5.247,3.453-5.247" transform="translate(-183.846 -27.833)" fill="#fdac98"/>
            <path id="Path_16333" data-name="Path 16333" d="M354.73,65.59l0,19.259L348.836,92.8l1.155,9.433a7.362,7.362,0,0,1-5.034,7.929,19.32,19.32,0,0,1-5.841.9c-7.07,0-10.9-5.3-11.488-7.953s1.178-15.318,1.178-15.318l-.215-6.224.8-24.117Z" transform="translate(-184.44 -32.356)" fill="#fdac98"/>
            <path id="Path_16334" data-name="Path 16334" d="M318.55,54.463l-6.13,3.844,1.621,13.824s-1.258,15.109,7.979,14.127l2.495-21.733L321.3,55.872Z" transform="translate(-175.944 -30.672)" fill="#090028"/>
            <path id="Path_16335" data-name="Path 16335" d="M331.522,92.717s-.552,4.4-3.48,4.4l-5.814-7.358,7.343-2.937Z" transform="translate(-181.467 -48.894)" fill="#fdac98"/>
            <path id="Path_16336" data-name="Path 16336" d="M343.5,124.625s.415,11.833,15.193,12.963l-.852-6.957s-9.585,1.926-14.341-6.006" transform="translate(-193.45 -70.185)" fill="#ed8065"/>
            <path id="Path_16337" data-name="Path 16337" d="M329.978,117.82,331,107.845l2.476.274v9.988Z" transform="translate(-185.832 -60.735)" fill="#ed8065"/>
            <path id="Path_16338" data-name="Path 16338" d="M329.588,52.689s-1.735,4.14,1.11,11.044-7.3-2.575-7.3-2.575.7-10.106,6.189-8.469" transform="translate(-182.127 -29.572)" fill="#04020f"/>
            <path id="Path_16339" data-name="Path 16339" d="M723.016,175.392a.365.365,0,0,1-.053,0,5.184,5.184,0,0,1-3.628-1.993,3.65,3.65,0,0,1-.551-2.64.312.312,0,0,1,.61.135,3.068,3.068,0,0,0,.466,2.165,4.607,4.607,0,0,0,3.208,1.716.312.312,0,0,1-.052.62" transform="translate(-404.763 -96.026)" fill="#ae253d"/>
            <path id="Path_16340" data-name="Path 16340" d="M452.513,837.868s-13.194,33.2-2.128,58.308L196.725,898.3l-23.408-2.128-17.82-1.1-2.811-31.242,3.3-24.432,21.157-1.53Z" transform="translate(-85.988 -471.858)" fill="#fff"/>
            <path id="Path_16341" data-name="Path 16341" d="M142.827,895.175H453.21a3.322,3.322,0,0,0,3.366-3.133,3.232,3.232,0,0,0-3.231-3.331h-303.4l-.654-27.838,1.148-27.836H453.21a3.322,3.322,0,0,0,3.366-3.133,3.232,3.232,0,0,0-3.231-3.331H142.827v68.6Z" transform="translate(-80.435 -465.497)" fill="#090028"/>
            <path id="Path_16342" data-name="Path 16342" d="M521.723,904.887h134.49a.718.718,0,1,0,0-1.436H521.723a.718.718,0,0,0,0,1.436" transform="translate(-293.412 -508.792)" fill="#ededed"/>
            <path id="Path_16343" data-name="Path 16343" d="M179.26,904.887H309.92a.718.718,0,1,0,0-1.436H179.26a.718.718,0,0,0,0,1.436" transform="translate(-100.549 -508.792)" fill="#ededed"/>
            <path id="Path_16344" data-name="Path 16344" d="M187.3,934.343h67.038a.718.718,0,1,0,0-1.436H187.3a.718.718,0,1,0,0,1.436" transform="translate(-105.076 -525.381)" fill="#ededed"/>
            <path id="Path_16345" data-name="Path 16345" d="M363.278,934.343h203.7a.718.718,0,0,0,0-1.436h-203.7a.718.718,0,1,0,0,1.436" transform="translate(-204.181 -525.381)" fill="#ededed"/>
            <path id="Path_16346" data-name="Path 16346" d="M630.106,875.622l9.063,36.428-12.42-9.935a93.4,93.4,0,0,0-7.724,10.838s-5.356-35.353-15.737-37.331Z" transform="translate(-339.751 -493.12)" fill="#090028"/>
            <path id="Path_16347" data-name="Path 16347" d="M187.3,875.414H467.877a.718.718,0,1,0,0-1.436H187.3a.718.718,0,1,0,0,1.436" transform="translate(-105.076 -492.194)" fill="#ededed"/>
            <path id="Path_16348" data-name="Path 16348" d="M777.724,267.4V375.286H697.38V285.155l17.3-17.753Z" transform="translate(-392.74 -150.591)" fill="#fff"/>
            <path id="Path_16349" data-name="Path 16349" d="M697.379,285.188l17.2-17.787v17.787Z" transform="translate(-392.74 -150.591)" fill="#090028"/>
            <path id="Path_16350" data-name="Path 16350" d="M753.519,295.795h35.051a.91.91,0,0,0,0-1.821H753.519a.91.91,0,1,0,0,1.821" transform="translate(-423.843 -165.556)" fill="#090028"/>
            <path id="Path_16351" data-name="Path 16351" d="M742.577,311.947h44.611a.91.91,0,1,0,0-1.821H742.577a.91.91,0,1,0,0,1.821" transform="translate(-417.681 -174.652)" fill="#090028"/>
            <path id="Path_16352" data-name="Path 16352" d="M715.484,350.5h64.64a.91.91,0,0,0,0-1.821h-64.64a.91.91,0,1,0,0,1.821" transform="translate(-402.423 -196.366)" fill="#090028"/>
            <path id="Path_16353" data-name="Path 16353" d="M715.484,368.74h64.64a.91.91,0,0,0,0-1.821h-64.64a.91.91,0,1,0,0,1.821" transform="translate(-402.423 -206.636)" fill="#090028"/>
            <path id="Path_16354" data-name="Path 16354" d="M715.484,386.976h64.64a.91.91,0,0,0,0-1.821h-64.64a.91.91,0,1,0,0,1.821" transform="translate(-402.423 -216.906)" fill="#090028"/>
            <path id="Path_16355" data-name="Path 16355" d="M715.484,423.449h64.64a.91.91,0,0,0,0-1.821h-64.64a.91.91,0,1,0,0,1.821" transform="translate(-402.423 -237.446)" fill="#090028"/>
            <path id="Path_16356" data-name="Path 16356" d="M715.484,441.685h64.64a.91.91,0,0,0,0-1.821h-64.64a.91.91,0,1,0,0,1.821" transform="translate(-402.423 -247.716)" fill="#090028"/>
            <path id="Path_16357" data-name="Path 16357" d="M715.484,488.578h64.64a.91.91,0,0,0,0-1.821h-64.64a.91.91,0,1,0,0,1.821" transform="translate(-402.423 -274.125)" fill="#090028"/>
            <path id="Path_16358" data-name="Path 16358" d="M319.79,151.261l13.1,9.229,8.768-8.509,5.222,2.232-4.571,15.128-9.04-5.551-8.4,5.551-11.293-15.671Z" transform="translate(-176.594 -85.185)" fill="#fff"/>
            <rect id="Rectangle_12175" data-name="Rectangle 12175" width="805.202" height="2.664" transform="translate(0 430.327)" fill="#04020f"/>
            <path id="Path_16359" data-name="Path 16359" d="M332.417,55.593l27.141-6.3-3.907-5.414-5.81-5.275-23.389,6.928Z" transform="translate(-183.847 -21.74)" fill="#04020f"/>
            <path id="Path_16360" data-name="Path 16360" d="M1123.033,873.041h2.432l-5.337-87.328h-6.012Z" transform="translate(-627.432 -442.486)" fill="#4c222e"/>
            <path id="Path_16361" data-name="Path 16361" d="M937,873.041h-2.432l5.337-87.328h6.012Z" transform="translate(-526.316 -442.486)" fill="#4c222e"/>
            <path id="Path_16362" data-name="Path 16362" d="M1076.948,507.291h-52.36L996.889,630.6l60-6.4Z" transform="translate(-561.414 -285.689)" fill="#ce761c"/>
            <path id="Path_16363" data-name="Path 16363" d="M894.215,615.752s69.06,1.743,89.595,1.744a6.914,6.914,0,0,0,6.757-5.751l18.887-104.558,5.372.043c-.157.018.1.119,0,0-.426-.485,3.166,2.917,3.743,3.371L997.531,627.066a4.907,4.907,0,0,1-1.088,2.308,7.861,7.861,0,0,1-6.947,4.247H894.464a7.975,7.975,0,0,1-7.885-8.063c0-4.453,3.281-9.806,7.636-9.806" transform="translate(-499.291 -285.628)" fill="#eaab28"/>
            <path id="Path_16364" data-name="Path 16364" d="M1030.364,770.423h0l37.273-.068c10.041.925,11.236-7.86,11.293-8.343l2.216-12.268a.393.393,0,0,0-.308-.458.385.385,0,0,0-.448.315l-2.223,12.313c-.035.349-.961,8.544-10.478,7.656h-.035l-37.292.068a.393.393,0,0,0,0,.786" transform="translate(-580.049 -421.969)" fill="#04020f"/>
            <path id="Path_16365" data-name="Path 16365" d="M863.819,923.379l10,5.62,11.956-11.76.322-1.906-2.926-21.4L859.9,898.268Z" transform="translate(-484.267 -503.433)" fill="#ff6160"/>
            <path id="Path_16366" data-name="Path 16366" d="M862.585,957.206l-32.074,4.367a5,5,0,0,1-.719-.048l-2.421-2.566,14.062-11.627.1-1.432,5.091-2.238,5.909,3.193s13.891.2,15.243-3.938l1.257,10.088Z" transform="translate(-465.946 -531.019)" fill="#090028"/>
            <path id="Path_16367" data-name="Path 16367" d="M768.945,923.379l10,5.62,11.956-11.76.322-1.906-2.926-21.4-23.27,4.333Z" transform="translate(-430.838 -503.433)" fill="#ff6160"/>
            <path id="Path_16368" data-name="Path 16368" d="M767.71,957.55l-32.074,4.367a5.006,5.006,0,0,1-.72-.048l-2.421-2.565,14.062-11.627.1-1.432,5.091-2.238,5.909,3.193,15.111-3.62a.094.094,0,0,1,.176.033l1.214,9.737Z" transform="translate(-412.516 -531.363)" fill="#090028"/>
            <path id="Path_16369" data-name="Path 16369" d="M938.6,371.835l4.273-15.18s11.034,3.716,14.666,4.454L970.4,366.4c2.954,6.4,5.861,12.078,5.861,12.078l14.771,21.788C988.937,412.946,976.8,413.3,976.8,413.3s-47.256,6.046-51.507-6.017l5.546-22.466Z" transform="translate(-521.093 -200.856)" fill="#090028"/>
            <path id="Path_16370" data-name="Path 16370" d="M948.351,684.179s40.007,1.881,51.116-.586,13.846-37.144,1.231-58.39-56.75,43.985-56.75,43.985Z" transform="translate(-531.6 -349.697)" fill="#2e53b2"/>
            <path id="Path_16371" data-name="Path 16371" d="M819.883,646.59l-57.328,15.127L759.773,766.15s21.184,1.8,31.335-.66l2.916-67.458,17.082.313,37.647-52.7Z" transform="translate(-427.878 -363.607)" fill="#194596"/>
            <path id="Path_16372" data-name="Path 16372" d="M896.821,657.039l-44.755,18.632s-6.212,67.748-2.752,97.047c0,0,22.822,1.307,32.973-1.154l2.735-67.39,9.845.343,23.87-42Z" transform="translate(-477.714 -370.022)" fill="#2e53b2"/>
            <path id="Path_16373" data-name="Path 16373" d="M946.117,468.106s18.528,1.611,23.5,2.936c11.528,3.073,24.734,36.066,29.117,50.253,0,0-11.458,10.035-26.222,10.42l-3.548-6.69,2.028,13.7-38.671,11.47a63.443,63.443,0,0,1-39.99-1.3l-4.017-1.481s.061-65.089,11.687-71.968c10.357-6.127,32.794-9.35,46.116-7.337" transform="translate(-500.268 -263.284)" fill="#ffc349"/>
            <path id="Path_16374" data-name="Path 16374" d="M926.738,578.639c0-.024-.109-2.523-.992-14.78-2.35-1.951-11.677-11.391.043-30.408l.642.4c-11.615,18.845-2.108,27.9-.085,29.529l.128.1.012.164c.894,12.423,1,14.941,1,14.965Z" transform="translate(-518.115 -300.421)" fill="#04020f"/>
            <path id="Path_16375" data-name="Path 16375" d="M1073.981,584.619a49.283,49.283,0,0,0,25.742-12.241l-.557-.543a48.472,48.472,0,0,1-25.3,12.015Z" transform="translate(-604.762 -322.037)" fill="#04020f"/>
            <path id="Path_16376" data-name="Path 16376" d="M887.843,834.1c10.084,0,13.68-1.518,13.851-1.594l.223-.1,2.648-67.786-4.167,1.965.332.7,3.007-1.418-2.578,66c-1.091.377-6.321,1.886-18.674,1.316l-.036.778c1.975.091,3.769.131,5.394.131" transform="translate(-496.965 -430.611)" fill="#ea5942"/>
            <path id="Path_16377" data-name="Path 16377" d="M915.475,830.431c1.076-4.151,1.384-44.644,1.4-46.365l-.779-.006c0,.421-.32,42.117-1.372,46.176Z" transform="translate(-515.139 -441.556)" fill="#04020f"/>
            <path id="Path_16378" data-name="Path 16378" d="M797.338,834.881a71.286,71.286,0,0,0,14.915-1.5l2.5-67.821-3.189,2.212.488.606,1.864-1.5-2.418,65.88a70.734,70.734,0,0,1-14.912,1.338l-.007.779q.384,0,.762,0" transform="translate(-448.604 -431.139)" fill="#ea5942"/>
            <path id="Path_16379" data-name="Path 16379" d="M822.168,828.528c1.071-6.271.049-48.717.005-50.52l-.778.019c.01.441,1.063,44.174.005,50.371Z" transform="translate(-462.581 -438.147)" fill="#04020f"/>
            <path id="Path_16380" data-name="Path 16380" d="M911.011,626.7l4.409-6.854,10.434-9.53s47.3-2.413,60.192-4c0,0-.885-1.551-.863-1.546.15.034,10.54-1.77,10.54-1.77l6.69-3.172,6.016-2.6c1.661,6.473,6.219,17.108,1.544,24.517-8.64,13.69-74.717,6.95-80.58,5.157l-5.4,5.847-1.1,1.695a1.732,1.732,0,0,1-2.9-1.888l-.461.709a3.873,3.873,0,0,0-5.3-1.382,1.732,1.732,0,0,1-.507-2.4l.461-.709a1.732,1.732,0,0,1-2.4.507c-.032-.021-.062-.045-.093-.067l-.022-.016-.044-.034-.005,0,0,0a1.715,1.715,0,0,1-.282-.3,1.881,1.881,0,0,1-.325-2.152" transform="translate(-512.938 -336.335)" fill="#fdac98"/>
            <path id="Path_16381" data-name="Path 16381" d="M1087.3,624.072a.26.26,0,0,0,.262-.412l-4.73-6.089a.26.26,0,1,0-.41.319l4.73,6.089a.258.258,0,0,0,.148.094" transform="translate(-609.549 -347.738)" fill="#ae253d"/>
            <path id="Path_16382" data-name="Path 16382" d="M916.53,660.1a.259.259,0,0,0,.267-.1l6.19-8.5a.259.259,0,1,0-.42-.305l-6.19,8.5a.259.259,0,0,0,.152.406" transform="translate(-516.044 -366.672)" fill="#ae253d"/>
            <path id="Path_16383" data-name="Path 16383" d="M922.753,665.453a.26.26,0,0,0,.272-.108l5.907-8.762a.259.259,0,1,0-.43-.29l-5.907,8.761a.259.259,0,0,0,.158.4" transform="translate(-519.549 -369.537)" fill="#ae253d"/>
            <path id="Path_16384" data-name="Path 16384" d="M930.266,670.8a.26.26,0,0,0,.273-.11l4.914-7.426a.26.26,0,0,0-.433-.287l-4.914,7.426a.26.26,0,0,0,.073.36.267.267,0,0,0,.086.037" transform="translate(-523.78 -373.301)" fill="#ae253d"/>
            <path id="Path_16385" data-name="Path 16385" d="M952.213,764.626a315.227,315.227,0,0,1-31.833-1.347l.089-.773c.265.03,27.025,3,66.928,0l.058.777c-13.39,1.008-25.306,1.345-35.242,1.345" transform="translate(-518.326 -429.416)" fill="#04020f"/>
            <rect id="Rectangle_12176" data-name="Rectangle 12176" width="0.779" height="38.786" transform="translate(456.473 233.538) rotate(-23.481)" fill="#04020f"/>
            <rect id="Rectangle_12177" data-name="Rectangle 12177" width="0.778" height="10.801" transform="translate(467.859 259.715) rotate(-9.176)" fill="#04020f"/>
            <path id="Path_16386" data-name="Path 16386" d="M966.391,397.425s-2.565,17.213.328,21.028a6,6,0,0,0,4.8,2.092v10.771c0,3.355,15.2,3.355,15.2,0V395.98Z" transform="translate(-543.648 -223.002)" fill="#fdac98"/>
            <path id="Path_16387" data-name="Path 16387" d="M979.484,452.342V448.01s7.324-.431,11.817-3.262c0,0-6.1,5.863-11.817,7.594" transform="translate(-551.612 -250.467)" fill="#ae253d"/>
            <path id="Path_16388" data-name="Path 16388" d="M1007.343,419.026a4.325,4.325,0,0,0,4.325,4.325l4.325-4.325-4.325-4.325s-4.325,1.936-4.325,4.325" transform="translate(-567.301 -233.545)" fill="#fdac98"/>
            <path id="Path_16389" data-name="Path 16389" d="M967.743,389.688s1.315-6.656,10.222-7.389,10.106,5.945,10.106,5.945L977.907,390.3l-9.508-.664Z" transform="translate(-545 -215.266)" fill="#fdac98"/>
            <path id="Path_16390" data-name="Path 16390" d="M967.743,380.479l12.728,4.194,8.9,8.178,1.074-12.372s-9.724-3.961-10.339-3.961-10.932-.616-10.932-.616Z" transform="translate(-545 -211.696)" fill="#090028"/>
            <path id="Path_16391" data-name="Path 16391" d="M984.046,422.233a.172.172,0,0,0,0-.343.172.172,0,0,0,0,.343" transform="translate(-554.088 -237.594)" fill="#ea5942"/>
            <path id="Path_16392" data-name="Path 16392" d="M986.432,423.647a.172.172,0,0,0,0-.343.172.172,0,0,0,0,.343" transform="translate(-555.432 -238.39)" fill="#ea5942"/>
            <path id="Path_16393" data-name="Path 16393" d="M990.763,420.82a.172.172,0,0,0,0-.343.172.172,0,0,0,0,.343" transform="translate(-557.87 -236.798)" fill="#ea5942"/>
            <path id="Path_16394" data-name="Path 16394" d="M994.476,423.647a.172.172,0,0,0,0-.343.172.172,0,0,0,0,.343" transform="translate(-559.962 -238.39)" fill="#ea5942"/>
            <path id="Path_16395" data-name="Path 16395" d="M998.365,419.847a.172.172,0,0,0,0-.343.172.172,0,0,0,0,.343" transform="translate(-562.152 -236.25)" fill="#ea5942"/>
            <path id="Path_16396" data-name="Path 16396" d="M999.779,425.5a.172.172,0,0,0,0-.343.172.172,0,0,0,0,.343" transform="translate(-562.948 -239.436)" fill="#ea5942"/>
            <path id="Path_16397" data-name="Path 16397" d="M976.179,419.935a.172.172,0,0,0,0-.343.172.172,0,0,0,0,.343" transform="translate(-549.657 -236.3)" fill="#ea5942"/>
            <path id="Path_16398" data-name="Path 16398" d="M973.263,423.117a.172.172,0,0,0,0-.343.172.172,0,0,0,0,.343" transform="translate(-548.015 -238.092)" fill="#ea5942"/>
            <path id="Path_16399" data-name="Path 16399" d="M969.728,421.7a.172.172,0,0,0,0-.343.172.172,0,0,0,0,.343" transform="translate(-546.024 -237.296)" fill="#ea5942"/>
            <path id="Path_16400" data-name="Path 16400" d="M969.462,427.271a.172.172,0,0,0,0-.343.172.172,0,0,0,0,.343" transform="translate(-545.874 -240.431)" fill="#ea5942"/>
            <path id="Path_16401" data-name="Path 16401" d="M966.811,424a.172.172,0,0,0,0-.343.172.172,0,0,0,0,.343" transform="translate(-544.381 -238.59)" fill="#ea5942"/>
            <path id="Path_16402" data-name="Path 16402" d="M967.429,419.14a.172.172,0,0,0,0-.343.172.172,0,0,0,0,.343" transform="translate(-544.73 -235.852)" fill="#ea5942"/>
            <path id="Path_16403" data-name="Path 16403" d="M989.261,426.122a.172.172,0,0,0,0-.343.172.172,0,0,0,0,.343" transform="translate(-557.025 -239.784)" fill="#ea5942"/>
            <path id="Path_16404" data-name="Path 16404" d="M738.78,549h61.84l21.567,54.921h-61.84Z" transform="translate(-416.055 -309.179)" fill="#fff"/>
            <path id="Path_16405" data-name="Path 16405" d="M897.751,603.924h-3.227L872.957,549h3.227Z" transform="translate(-491.619 -309.179)" fill="#ededed"/>
            <path id="Path_16406" data-name="Path 16406" d="M823.215,603.122c.857,2.523.229,5.018-1.4,5.572s-3.65-1.041-4.507-3.564-.229-5.018,1.4-5.572,3.65,1.041,4.507,3.564" transform="translate(-460.062 -337.588)" fill="#e2f2f1"/>
            <path id="Path_16407" data-name="Path 16407" d="M946.728,664.575h-23.1v4.435h23.1a2.218,2.218,0,1,0,0-4.435" transform="translate(-520.154 -374.266)" fill="#ededed"/>
            <rect id="Rectangle_12178" data-name="Rectangle 12178" width="14.594" height="0.695" transform="translate(406.132 291.832)" fill="#fff"/>
            <rect id="Rectangle_12179" data-name="Rectangle 12179" width="27.213" height="9.724" transform="translate(397.423 294.744)" fill="#614dd4"/>
            <path id="Path_16408" data-name="Path 16408" d="M1423.781,873.322h2.426l-5.324-87.11h-6Z" transform="translate(-796.815 -442.768)" fill="#4c222e"/>
            <path id="Path_16409" data-name="Path 16409" d="M1238.211,873.322h-2.426l5.324-87.11h6Z" transform="translate(-695.952 -442.768)" fill="#4c222e"/>
            <path id="Path_16410" data-name="Path 16410" d="M1376.838,507.38h-52.229l-27.629,123,59.85-6.38Z" transform="translate(-730.414 -285.739)" fill="#ce761c"/>
            <path id="Path_16411" data-name="Path 16411" d="M1195.534,616.008s68.887,1.739,89.371,1.74a6.9,6.9,0,0,0,6.74-5.736l18.213-100.825a4.777,4.777,0,0,1,5.731-3.877,4.959,4.959,0,0,1,3.635,5.765l-20.632,114.22a4.9,4.9,0,0,1-1.085,2.3,7.842,7.842,0,0,1-6.93,4.237h-94.794a7.956,7.956,0,0,1-7.866-8.043c0-4.442,3.273-9.782,7.617-9.782" transform="translate(-668.994 -285.633)" fill="#eaab28"/>
            <path id="Path_16412" data-name="Path 16412" d="M1409.447,617.633a7.284,7.284,0,0,0,7.117-6.057l18.212-100.824a4.461,4.461,0,0,1,1.893-2.927,4.278,4.278,0,0,1,3.378-.639.384.384,0,0,0,.457-.3.393.393,0,0,0-.292-.468,5.026,5.026,0,0,0-3.967.751,5.237,5.237,0,0,0-2.224,3.438l-18.212,100.825a6.512,6.512,0,0,1-6.363,5.415.392.392,0,0,0,0,.785" transform="translate(-793.536 -285.126)" fill="#04020f"/>
            <path id="Path_16413" data-name="Path 16413" d="M1331.345,770.963h0l37.18-.068c10.015.923,11.208-7.841,11.265-8.322l2.21-12.237a.392.392,0,0,0-.307-.457.384.384,0,0,0-.447.314l-2.217,12.282c-.034.349-.958,8.523-10.452,7.637l-.036,0-37.2.068a.392.392,0,0,0,0,.784" transform="translate(-749.552 -422.302)" fill="#04020f"/>
            <path id="Path_16414" data-name="Path 16414" d="M1433.234,507.232h0l18.277-.027a.392.392,0,0,0,0-.785h0l-18.277.027a.392.392,0,0,0,0,.785" transform="translate(-806.932 -285.198)" fill="#ce761c"/>
            <path id="Path_16415" data-name="Path 16415" d="M1264.627,599.423l-5.977,2.584L1252,605.16s-10.324,1.792-10.473,1.759c-.022,0,.858,1.536.858,1.536-12.809,1.581-53.182,3.239-59.81,3.978-4,.446-7.835,5.414-10.256,9.29l3.282,2.22s35.257-1.555,35.187-.814c-.022.234-1.017,3.734-2.562,8.313,21.776,1.455,52.272,1.316,57.934-7.658,4.646-7.362.117-17.929-1.534-24.361" transform="translate(-660.21 -337.574)" fill="#ff6160"/>
            <path id="Path_16416" data-name="Path 16416" d="M1070.088,925.606l26.792.365.384-25.045-26.686-3.3Z" transform="translate(-602.637 -505.509)" fill="#ea5942"/>
            <path id="Path_16417" data-name="Path 16417" d="M1007.058,956.877l54.7-.092-.018-10.91-10.042-2.547-17.048-1.226-20.239,8.654Z" transform="translate(-567.14 -530.559)" fill="#090028"/>
            <path id="Path_16418" data-name="Path 16418" d="M1058.706,979.535l-56.476.095a.6.6,0,0,1-.6-.6l0-2.615a.6.6,0,0,1,.6-.6l56.476-.1Z" transform="translate(-564.079 -549.49)" fill="#ededed"/>
            <path id="Path_16419" data-name="Path 16419" d="M1056.512,946.354c1.84,2.837,5.535,8.538,7.885,12.165l3.729-.006c-2.1-3.24-6.5-10.032-8.691-13.408Z" transform="translate(-594.991 -532.25)" fill="#d7e4f7"/>
            <path id="Path_16420" data-name="Path 16420" d="M1052.374,961.113l3.729-.006c-1.708-2.636-5.039-7.776-7.4-11.414l-2.923,1.25c1.982,3.057,4.727,7.292,6.592,10.171" transform="translate(-588.948 -534.834)" fill="#d7e4f7"/>
            <path id="Path_16421" data-name="Path 16421" d="M1255.073,674.682s23.063.379,39.228-.174l12.54-.419s14.022-37.617,1.247-59.134-57.473,44.545-57.473,44.545Z" transform="translate(-704.303 -343.895)" fill="#0052b9"/>
            <path id="Path_16422" data-name="Path 16422" d="M1165.281,925.606l26.791.365.384-25.045-26.686-3.3Z" transform="translate(-656.246 -505.509)" fill="#ea5942"/>
            <path id="Path_16423" data-name="Path 16423" d="M1102.34,956.872l54.7-.082-.017-10.911-10.041-2.548-17.048-1.229-20.241,8.65s-7.361,2.411-7.356,6.121" transform="translate(-620.8 -530.559)" fill="#090028"/>
            <path id="Path_16424" data-name="Path 16424" d="M1153.986,979.545l-56.477.085a.6.6,0,0,1-.6-.6l0-2.614a.6.6,0,0,1,.6-.6l56.476-.085Z" transform="translate(-617.737 -549.495)" fill="#fffffd"/>
            <path id="Path_16425" data-name="Path 16425" d="M1151.8,946.352c1.839,2.837,5.533,8.539,7.883,12.166l3.728-.005c-2.1-3.24-6.5-10.033-8.688-13.41Z" transform="translate(-648.653 -532.249)" fill="#d7e4f7"/>
            <path id="Path_16426" data-name="Path 16426" d="M1147.657,961.11l3.729-.006c-1.708-2.636-5.038-7.777-7.4-11.415l-2.923,1.249,6.59,10.172" transform="translate(-642.61 -534.832)" fill="#d7e4f7"/>
            <g id="Group_30656" data-name="Group 30656" transform="translate(463.564 277.679)" style="mix-blend-mode: normal;isolation: isolate">
              <g id="Group_30655" data-name="Group 30655">
                <g id="Group_30654" data-name="Group 30654" clip-path="url(#clip-path-3)">
                  <path id="Path_16427" data-name="Path 16427" d="M1123.56,641.771s-56.652,3.62-58.287,10.162-6.322,76.092-2.817,105.764c0,0,21.494,1.48,31.774-1.012l2.5-72.349,16.968-1.947,38.87-46.727Z" transform="translate(-1061.187 -635.661)" fill="#003a69"/>
                </g>
              </g>
            </g>
            <path id="Path_16428" data-name="Path 16428" d="M1204.256,647.2l-45.326,18.87-2.786,98.283,33.393-1.168,2.77-68.248,9.97.347,24.174-42.531Z" transform="translate(-651.101 -364.479)" fill="#0052b9"/>
            <path id="Path_16429" data-name="Path 16429" d="M1221.779,822.8c1.09-4.2,1.4-45.212,1.414-46.956l-.788-.006c0,.426-.324,42.653-1.389,46.764Z" transform="translate(-687.634 -436.924)" fill="#04020f"/>
            <path id="Path_16430" data-name="Path 16430" d="M1129.506,747.115a54.481,54.481,0,0,1,12.383-1.93l-.026-.788a55.355,55.355,0,0,0-12.6,1.968Z" transform="translate(-635.962 -419.219)" fill="#04020f"/>
            <path id="Path_16431" data-name="Path 16431" d="M1127.282,820.871c1.084-6.351.05-49.337.006-51.164l-.788.019c.011.447,1.077,44.737.006,51.013Z" transform="translate(-634.405 -433.472)" fill="#04020f"/>
            <path id="Path_16432" data-name="Path 16432" d="M1258.985,756.154c10.063,0,22.128-.341,35.691-1.362l-.059-.783c-40.411,3.045-67.512.032-67.781,0l-.09.781a319.538,319.538,0,0,0,32.239,1.363" transform="translate(-690.861 -424.632)" fill="#04020f"/>
            <path id="Path_16433" data-name="Path 16433" d="M1227.415,596.769c-.78-.013-32.164,13.484-32.164,13.484l6.324,12.1,17.612-3.866Z" transform="translate(-673.124 -336.08)" fill="#614dd4"/>
            <path id="Path_16434" data-name="Path 16434" d="M1372.972,468.015l16.909,4.3,1.441,31.253a5.493,5.493,0,0,1-1.083-2.055c-.49-1.469-17.267-33.5-17.267-33.5" transform="translate(-773.211 -263.57)" fill="#614dd4"/>
            <path id="Path_16435" data-name="Path 16435" d="M1367.083,620.368a.358.358,0,0,1-.048.015l-9.818,2.246a.367.367,0,1,1-.164-.716l9.818-2.246a.367.367,0,0,1,.212.7" transform="translate(-764.085 -348.97)" fill="#04020f"/>
            <path id="Path_16436" data-name="Path 16436" d="M1273.127,607.923l-5.977,2.584-6.648,3.152s-10.324,1.792-10.473,1.759c-.022,0,.858,1.536.858,1.536-12.809,1.58-53.182,3.239-59.81,3.978-4,.446-7.835,5.414-10.256,9.29l3.281,2.22s35.258-1.555,35.187-.814c-.022.234-1.017,3.734-2.562,8.313,21.776,1.455,52.272,1.316,57.935-7.658,4.646-7.362.117-17.929-1.534-24.361" transform="translate(-664.997 -342.361)" fill="#f9b59d"/>
            <path id="Path_16437" data-name="Path 16437" d="M1304.969,473.129c-7.585-1.05-31.588-3.666-31.588-3.666s-2.651.7-1.806.3l-16.71,6.823-18.621,60.821-12,.65c-3.886,7.362-1.032,27.217-1.032,27.217l58.147,6.553,23.2-11.56,1.859-55.888Z" transform="translate(-688.299 -264.385)" fill="#ffc349"/>
            <path id="Path_16438" data-name="Path 16438" d="M1029.709,557.466h55.363l19.308,49.169h-55.363Z" transform="translate(-579.896 -313.945)" fill="#fffffd"/>
            <path id="Path_16439" data-name="Path 16439" d="M1172.029,606.635h-2.889l-19.308-49.169h2.889Z" transform="translate(-647.546 -313.945)" fill="#ededed"/>
            <path id="Path_16440" data-name="Path 16440" d="M1105.3,605.917c.768,2.259.2,4.492-1.256,4.989s-3.267-.932-4.035-3.191-.205-4.492,1.256-4.989,3.268.932,4.035,3.191" transform="translate(-619.294 -339.379)" fill="#e2f2f1"/>
            <path id="Path_16441" data-name="Path 16441" d="M1215.878,660.934H1195.2V664.9h20.682a1.985,1.985,0,0,0,0-3.971" transform="translate(-673.093 -372.215)" fill="#ededed"/>
            <rect id="Rectangle_12181" data-name="Rectangle 12181" width="13.065" height="0.622" transform="translate(524.484 290.082)" fill="#fffffd"/>
            <path id="Path_16442" data-name="Path 16442" d="M1357.156,571.342a.367.367,0,0,1-.487-.428c.061-.259,6.138-26.092,8.724-42.347a.367.367,0,1,1,.725.115c-2.59,16.283-8.673,42.141-8.735,42.4a.366.366,0,0,1-.227.259" transform="translate(-764.024 -297.497)" fill="#04020f"/>
            <path id="Path_16443" data-name="Path 16443" d="M1271.062,574.944a.367.367,0,0,1-.48-.454c.091-.288,9.106-28.895,10.99-38.784a.367.367,0,1,1,.721.137c-1.891,9.932-10.92,38.58-11.011,38.868a.367.367,0,0,1-.221.233" transform="translate(-715.538 -301.523)" fill="#04020f"/>
            <path id="Path_16444" data-name="Path 16444" d="M1224.217,626.5s-3.838,9.056-1.032,27.217l14.031-7.528-4.167-13.567Z" transform="translate(-688.277 -352.822)" fill="#614dd4"/>
            <path id="Path_16445" data-name="Path 16445" d="M1293.688,625.742a.367.367,0,0,1-.141.024c-.525-.016-52.478-1.575-69.476-.173-.418,1.116-2.336,6.881-1.8,17.429a.367.367,0,1,1-.734.038c-.608-11.952,1.833-17.72,1.938-17.96l.088-.2.218-.019c16.8-1.439,69.26.135,69.788.151a.367.367,0,0,1,.118.711" transform="translate(-687.874 -351.57)" fill="#04020f"/>
            <path id="Path_16446" data-name="Path 16446" d="M1331.92,401.969l-.415,15.98,4.131,5.89-1.017,6.832,3.509,5.857,4.227.765,8.5-5.563-.567-11.152.274-4.519-.13-17.539Z" transform="translate(-749.858 -224.433)" fill="#fdac98"/>
            <path id="Path_16447" data-name="Path 16447" d="M1350.529,447.108l-11.284,9.133.75-5.039Z" transform="translate(-754.216 -251.796)" fill="#ae253d"/>
            <path id="Path_16448" data-name="Path 16448" d="M1370.276,411.686l-4.644.842-.857.844s.6-7.734,1.51-9.234,3.991,7.549,3.991,7.549" transform="translate(-768.594 -227.501)" fill="#090028"/>
            <path id="Path_16449" data-name="Path 16449" d="M1346.051,399.642l-.729-10.324-16.914-6.735-.08,3.1-6.569,2.828,4.622,6.427s16.7-.066,19.671,4.709" transform="translate(-744.369 -215.458)" fill="#090028"/>
            <path id="Path_16450" data-name="Path 16450" d="M1782.6,877.648h2.332l-5.118-83.754h-5.766Z" transform="translate(-999.081 -447.094)" fill="#4c222e"/>
            <path id="Path_16451" data-name="Path 16451" d="M1604.176,877.648h-2.332l5.118-83.754h5.766Z" transform="translate(-902.103 -447.094)" fill="#4c222e"/>
            <path id="Path_16452" data-name="Path 16452" d="M1737.463,525.8h-50.217l-26.565,118.265,57.545-6.134Z" transform="translate(-935.238 -296.112)" fill="#ce761c"/>
            <path id="Path_16453" data-name="Path 16453" d="M1563.143,630.245s66.234,1.672,85.928,1.672a6.631,6.631,0,0,0,6.48-5.515l17.511-96.941a4.593,4.593,0,0,1,5.51-3.728,4.768,4.768,0,0,1,3.5,5.543L1662.231,641.1a4.711,4.711,0,0,1-1.044,2.213,7.539,7.539,0,0,1-6.663,4.073h-91.143a7.649,7.649,0,0,1-7.562-7.733c0-4.271,3.147-9.4,7.323-9.4" transform="translate(-876.184 -296.011)" fill="#e59022"/>
            <path id="Path_16454" data-name="Path 16454" d="M1768.817,631.807a7,7,0,0,0,6.843-5.824l17.511-96.941a4.285,4.285,0,0,1,1.82-2.815,4.112,4.112,0,0,1,3.248-.614.369.369,0,0,0,.44-.287.377.377,0,0,0-.28-.449,4.831,4.831,0,0,0-3.814.722,5.037,5.037,0,0,0-2.138,3.306l-17.511,96.941a6.26,6.26,0,0,1-6.117,5.207.377.377,0,0,0,0,.754" transform="translate(-995.929 -295.524)" fill="#eaab28"/>
            <path id="Path_16455" data-name="Path 16455" d="M1693.722,779.23h0l35.748-.066c9.63.888,10.776-7.539,10.831-8l2.125-11.766a.377.377,0,0,0-.3-.439.369.369,0,0,0-.429.3l-2.132,11.809c-.033.335-.921,8.194-10.049,7.343l-.034,0-35.765.066a.377.377,0,0,0,0,.754" transform="translate(-953.638 -427.415)" fill="#04020f"/>
            <path id="Path_16456" data-name="Path 16456" d="M1791.687,525.657h0l17.573-.026a.377.377,0,0,0,0-.754h0l-17.574.026a.377.377,0,0,0,0,.754" transform="translate(-1008.808 -295.593)" fill="#04020f"/>
            <path id="Path_16457" data-name="Path 16457" d="M1533.381,924.257l9.861,5.54,11.787-11.594.317-1.879-2.885-21.1L1529.52,899.5Z" transform="translate(-861.373 -504.162)" fill="#ffbcdb"/>
            <path id="Path_16458" data-name="Path 16458" d="M1532.072,957.607l-31.622,4.306a4.949,4.949,0,0,1-.709-.047c-3.1-.507-2.387-2.53-2.387-2.53l13.864-11.462.1-1.412c.163-2.267,2.78-3.417,5.019-2.207l5.825,3.148s13.7.2,15.029-3.883l1.239,9.945s1.456,3.027-6.359,4.14" transform="translate(-843.218 -531.359)" fill="#090028"/>
            <path id="Path_16459" data-name="Path 16459" d="M1439.845,924.257l9.861,5.54,11.787-11.594.317-1.879-2.885-21.1-22.942,4.272Z" transform="translate(-808.696 -504.162)" fill="#ffbcdb"/>
            <path id="Path_16460" data-name="Path 16460" d="M1438.535,957.607l-31.622,4.306a4.949,4.949,0,0,1-.709-.047c-3.1-.507-2.387-2.53-2.387-2.53l13.864-11.462.1-1.412c.163-2.267,2.78-3.417,5.019-2.207l5.825,3.148s13.7.2,15.028-3.883l1.24,9.945s1.456,3.027-6.36,4.14" transform="translate(-790.542 -531.359)" fill="#090028"/>
            <path id="Path_16461" data-name="Path 16461" d="M1616.72,688.429l57.859-.663-6.249-57.481c-12.437-20.946-55.95,43.365-55.95,43.365Z" transform="translate(-908.037 -352.593)" fill="#0052b9"/>
            <g id="Group_30659" data-name="Group 30659" transform="translate(623.786 284.136)" style="mix-blend-mode: normal;isolation: isolate">
              <g id="Group_30658" data-name="Group 30658">
                <g id="Group_30657" data-name="Group 30657" clip-path="url(#clip-path-4)">
                  <path id="Path_16462" data-name="Path 16462" d="M1488.47,651.37s-54.928,8.545-56.52,14.913-6.154,74.075-2.743,102.961c0,0,20.885,1.776,30.893-.651l2.876-66.507,16.841.308,37.116-51.952Z" transform="translate(-1427.971 -650.443)" fill="#003a69"/>
                </g>
              </g>
            </g>
            <path id="Path_16463" data-name="Path 16463" d="M1567.25,661.673l-44.124,18.37-2.712,95.678,32.507-1.137,2.7-66.44,9.706.339,23.534-41.4Z" transform="translate(-856.244 -372.631)" fill="#0052b9"/>
            <path id="Path_16464" data-name="Path 16464" d="M1614.519,475.8l23.169,2.894s24.385,35.557,28.706,49.545c0,0-11.3,9.894-25.853,10.273l-3.5-6.6,2,13.5-38.126,11.307a62.547,62.547,0,0,1-39.426-1.281l-3.96-1.46,11.522-70.953s32.332-9.219,45.466-7.234" transform="translate(-877.148 -267.798)" fill="#ffc349"/>
            <path id="Path_16465" data-name="Path 16465" d="M1633.912,396.728V414.9l5.117,6.909-1,8.193,4.373,6.888,5.074.784,9.979-6.909-1.024-13.306.187-5.406-.7-20.948Z" transform="translate(-920.163 -220.253)" fill="#ffbcdb"/>
            <path id="Path_16466" data-name="Path 16466" d="M1648.394,381.387l-4.284,6.065-19.631-.93-2.655-11.827L1633,372.722l8.927-.66s7.808,5.592,7.335,6.994-.872,2.331-.872,2.331" transform="translate(-913.355 -209.533)" fill="#090028"/>
            <path id="Path_16467" data-name="Path 16467" d="M1676.867,387.552l7.557,5.4-.626,10.359c-.1,1.693-5.444,12.144-5.444,12.144l-5.511-19.281,4.65-6.985Z" transform="translate(-942.087 -218.256)" fill="#090028"/>
            <path id="Path_16468" data-name="Path 16468" d="M1674.144,420.639c0,2.544.479,4.565,3.023,4.565l4.606-4.606-4.606-4.606s-3.023,2.1-3.023,4.646" transform="translate(-942.82 -234.273)" fill="#ffbcdb"/>
            <path id="Path_16469" data-name="Path 16469" d="M1657.13,449.445l-13.2,11.26.74-6.043Z" transform="translate(-925.807 -253.112)" fill="#ed8065"/>
            <path id="Path_16470" data-name="Path 16470" d="M1740.579,590.274a48.591,48.591,0,0,0,25.379-12.068l-.55-.536a47.793,47.793,0,0,1-24.947,11.846Z" transform="translate(-980.168 -325.324)" fill="#04020f"/>
            <path id="Path_16471" data-name="Path 16471" d="M1557.066,836.241c9.942,0,13.487-1.5,13.656-1.571l.22-.1,2.611-66.83-4.108,1.937.327.695,2.965-1.4-2.542,65.071c-1.075.372-6.232,1.859-18.411,1.3l-.035.767c1.948.09,3.716.129,5.318.129" transform="translate(-873.891 -432.366)" fill="#04020f"/>
            <path id="Path_16472" data-name="Path 16472" d="M1584.309,832.619c1.061-4.093,1.365-44.014,1.377-45.711l-.768-.006c0,.415-.315,41.523-1.352,45.524Z" transform="translate(-891.81 -443.156)" fill="#04020f"/>
            <path id="Path_16473" data-name="Path 16473" d="M1467.838,837.006a70.274,70.274,0,0,0,14.7-1.475L1485,768.667l-3.144,2.18.482.6,1.838-1.48-2.384,64.951a69.715,69.715,0,0,1-14.7,1.319l-.007.767q.378,0,.751,0" transform="translate(-826.213 -432.887)" fill="#04020f"/>
            <path id="Path_16474" data-name="Path 16474" d="M1492.316,830.744c1.056-6.182.049-48.029.005-49.808l-.768.018c.011.435,1.049,43.552.006,49.661Z" transform="translate(-839.992 -439.796)" fill="#04020f"/>
            <path id="Path_16475" data-name="Path 16475" d="M1579.906,631.761l3.213-5,11.421-11.157s46.634-2.379,59.343-3.947c0,0-.873-1.529-.851-1.525.149.033,10.392-1.745,10.392-1.745l6.6-3.127,5.93-2.564s6.384,14.853,6.953,18.635l-84.875,10.62-5.321,5.764-1.087,1.671a1.707,1.707,0,0,1-2.862-1.862l-.455.7a3.818,3.818,0,0,0-5.224-1.362,1.708,1.708,0,0,1-.5-2.362l.455-.7a1.707,1.707,0,0,1-2.362.5c-.032-.021-.062-.044-.092-.066l-.021-.016-.043-.034-.005,0,0,0a1.7,1.7,0,0,1-.278-.3,1.853,1.853,0,0,1-.321-2.122" transform="translate(-889.638 -339.42)" fill="#ffbcdb"/>
            <path id="Path_16476" data-name="Path 16476" d="M1742.267,583.888l.245-.006c12.94-.3,25.948-10.253,26.078-10.353l.24-.185-8.207-18.185-.7.316,7.956,17.628c-1.814,1.338-13.5,9.622-25.14,10l-3.523-7.169-.689.338Z" transform="translate(-979.079 -312.646)" fill="#04020f"/>
            <path id="Path_16477" data-name="Path 16477" d="M1753.706,629.171a.256.256,0,0,0,.259-.407l-4.664-6a.256.256,0,1,0-.4.315l4.663,6a.255.255,0,0,0,.146.093" transform="translate(-984.888 -350.662)" fill="#ae253d"/>
            <path id="Path_16478" data-name="Path 16478" d="M1585.349,664.692a.256.256,0,0,0,.263-.1l6.1-8.378a.256.256,0,0,0-.414-.3l-6.1,8.379a.256.256,0,0,0,.056.357.252.252,0,0,0,.094.043" transform="translate(-892.701 -369.328)" fill="#ae253d"/>
            <path id="Path_16479" data-name="Path 16479" d="M1591.484,669.968a.255.255,0,0,0,.268-.107l5.824-8.638a.256.256,0,0,0-.424-.286l-5.824,8.638a.256.256,0,0,0,.069.355.263.263,0,0,0,.087.038" transform="translate(-896.156 -372.154)" fill="#ae253d"/>
            <path id="Path_16480" data-name="Path 16480" d="M1598.891,675.241a.256.256,0,0,0,.27-.108l4.844-7.322a.256.256,0,0,0-.427-.283l-4.844,7.322a.256.256,0,0,0,.073.355.25.25,0,0,0,.085.036" transform="translate(-900.328 -375.864)" fill="#ae253d"/>
            <path id="Path_16481" data-name="Path 16481" d="M1620.528,767.743a310.932,310.932,0,0,1-31.384-1.328l.087-.763c.261.03,26.644,2.962,65.984,0l.057.765c-13.2.994-24.949,1.326-34.745,1.326" transform="translate(-894.951 -431.188)" fill="#04020f"/>
            <rect id="Rectangle_12183" data-name="Rectangle 12183" width="32.608" height="0.767" transform="translate(697.269 266.211) rotate(-88.173)" fill="#04020f"/>
            <rect id="Rectangle_12184" data-name="Rectangle 12184" width="0.768" height="38.239" transform="translate(747.845 236.316) rotate(-23.481)" fill="#04020f"/>
            <rect id="Rectangle_12185" data-name="Rectangle 12185" width="0.767" height="10.649" transform="matrix(0.987, -0.159, 0.159, 0.987, 759.07, 262.124)" fill="#04020f"/>
            <path id="Path_16482" data-name="Path 16482" d="M1410.1,555.159h60.968l21.263,54.147h-60.968Z" transform="translate(-794.122 -312.647)" fill="#090028"/>
            <path id="Path_16483" data-name="Path 16483" d="M1566.834,609.306h-3.181l-21.263-54.147h3.181Z" transform="translate(-868.621 -312.647)" fill="#090028"/>
            <path id="Path_16484" data-name="Path 16484" d="M1615.122,669.1h-22.777v4.373h22.777a2.186,2.186,0,0,0,0-4.373" transform="translate(-896.754 -376.815)" fill="#090028"/>
            <rect id="Rectangle_12186" data-name="Rectangle 12186" width="14.388" height="0.685" transform="translate(698.213 293.788)" fill="#090028"/>
            <rect id="Rectangle_12187" data-name="Rectangle 12187" width="26.83" height="9.587" transform="translate(689.628 296.66)" fill="#0052b9"/>
            <path id="Path_16485" data-name="Path 16485" d="M340.276,70.992l-2.029,9.51c-.414-4.2-3.711-3.842-3.711-3.842.969-4.306.377-7.462,1.512-7.329a22.844,22.844,0,0,1,4.227,1.661" transform="translate(-188.399 -39.042)" fill="#090028"/>
            <path id="Path_16486" data-name="Path 16486" d="M1364.24,419.594c0,2.544.479,4.565,3.023,4.565l4.606-4.606-4.606-4.606s-3.023,2.1-3.023,4.646" transform="translate(-768.293 -233.684)" fill="#fdac98"/>
          </g>
        </g>
      </g>
    </g>
  </g>
</svg>
