<svg xmlns="http://www.w3.org/2000/svg" xmlns:xlink="http://www.w3.org/1999/xlink" width="1001" height="669.584" viewBox="0 0 1001 669.584">
  <defs>
    <clipPath id="clip-path">
      <rect id="Rectangle_10531" data-name="Rectangle 10531" width="1001" height="669.584" transform="translate(-1 1835.416)" fill="#fff"/>
    </clipPath>
    <clipPath id="clip-path-2">
      <rect id="Rectangle_10187" data-name="Rectangle 10187" width="600.218" height="464.895" fill="none"/>
    </clipPath>
  </defs>
  <g id="Mask_Group_79" data-name="Mask Group 79" transform="translate(1 -1835.416)" clip-path="url(#clip-path)">
    <g id="Group_29544" data-name="Group 29544" transform="translate(0 -700)">
      <g id="_2" data-name="2" transform="translate(0 800)">
        <rect id="Rectangle_10184" data-name="Rectangle 10184" width="840" height="118" transform="translate(81 2276.361)" fill="#ffe8aa"/>
        <g id="Group_29087" data-name="Group 29087" transform="translate(200.891 1877.416)">
          <g id="Group_29086" data-name="Group 29086" clip-path="url(#clip-path-2)">
            <path id="Path_14251" data-name="Path 14251" d="M422.556,206.2l.186.438h-.013c-.068-.173-.12-.305-.173-.412l-.04-.119a.847.847,0,0,1,.04.093" transform="translate(138.431 67.526)" fill="#ec644e"/>
            <path id="Path_14252" data-name="Path 14252" d="M542.356,237.027a1.2,1.2,0,0,0-.212-.146l-21.03,13.975-51.506,20.353-32.892-2.132a69.936,69.936,0,0,0-12.32-1.022c-.119.173-.146.2-.266.372,1.726,4.793,14.83,26.141,20.6,35.448,1.673,2.682,2.722,4.368,2.722,4.368L393.3,327.676s-26.152-10.7-35.843-4.871c-3.465,2.1-2.836,2.447-3.539,3.1-1.063-1.049-8.343-3.89-16.375-2.655-5.753.886-10.178,5.754-10.178,5.754s-8.709-4.872-17.259-2.655c-3.36.876-9.049,6.5-12.392,13.718-4.063,8.776-.884,19.914-3.1,19.029-.25-.1-.886,12.392-37.506,9.847-13.721-.953-34-1.089-47.755-1.089.093-.252.186-.5.266-.77.066-.173.119-.358.173-.531a.046.046,0,0,1,.013-.027c5.271-13.462,8.457-28.518,10.316-42.936a113.113,113.113,0,0,0,1.792-18.043c0-.319,0-.624-.013-.916a.546.546,0,0,1,.013-.146v-.066c.372-5.961.544-11.59.6-16.688.04-3.147.04-6.107,0-8.815-.159-10.661-.743-17.432-.743-17.432l-26.845,6.505c-9.824,2.39-35.209-1.766-35.209-1.766-10.555-1.819-15.175-2.058-22.928.757-3.266,1.182-6.559,2.549-9.851,3.8l-5.284,2.031a60.02,60.02,0,0,1-.239-6.134c.027-5.271,2.908-22.729,2.908-22.729l4.947-52.669c0-.385-.054.571-.054.571h0L162,141.835l26.632-20.114,28.106-11.471,46.507-21.933s23.273-11.311,39.842-9.094c30.894,4.155,69,17.273,98.776,19.264,0,0,84.052,36.085,87.531,43.507,16.5,35.275,46.892,82.964,52.959,95.032" transform="translate(39.78 25.862)" fill="#efc53d"/>
            <path id="Path_14253" data-name="Path 14253" d="M223.055,259l-.122-43.163-26.858,6.525c-9.815,2.384-35.2-1.77-35.2-1.77-10.5-2.615-14.414-1.6-22.945.746,0,0-5.847,27.055-5.834,27.065.1-.3-14.2,66.282-14.2,66.282,12.513,5.612,81.253,15.071,88.42,15.875,2.953.331,13.66-35.257,14.941-52.6C222.1,271.445,222.678,265.056,223.055,259Z" transform="translate(38.629 70.717)" fill="#fcd8c3"/>
            <path id="Path_14254" data-name="Path 14254" d="M151.513,218.291c-4.58-.179-8.15.766-13.578,2.256,0,0-5.847,27.055-5.835,27.065.1-.3-14.2,66.282-14.2,66.282,2.642,1.184,7.795,2.541,14.34,3.951q.46-.854.959-1.687a37.4,37.4,0,0,1-4.677-1.6s14.3-66.586,14.2-66.282c-.012-.011,5.835-27.065,5.835-27.065,1.106-.3,2.127-.582,3.1-.835-.065-.692-.112-1.386-.146-2.084" transform="translate(38.629 71.513)" fill="#fff"/>
            <path id="Path_14255" data-name="Path 14255" d="M1.25,317.45s56.2-9.039,90.955-7.59c38.221,1.592,91.534,13.9,91.534,13.9l-1.94,23.378s-78.765-12.8-109.284-12.8S1.25,340.244,1.25,340.244Z" transform="translate(0.41 101.469)" fill="#fff"/>
            <path id="Path_14256" data-name="Path 14256" d="M1.25,317.45s56.2-9.039,90.955-7.59c38.221,1.592,91.534,13.9,91.534,13.9l-1.94,23.378s-78.765-12.8-109.284-12.8S1.25,340.244,1.25,340.244Z" transform="translate(0.41 101.469)" fill="none" stroke="#263238" stroke-linecap="round" stroke-linejoin="round" stroke-width="2.5"/>
            <path id="Path_14257" data-name="Path 14257" d="M229.33,327.258,137.243,348.11l1.94-23.38,82.8-18Z" transform="translate(44.965 100.496)" fill="#3e54af"/>
            <path id="Path_14258" data-name="Path 14258" d="M139.388,319.339a20.231,20.231,0,0,0-.685,4.979L189.845,313.2c-9.349-2.894-16.858-4.77-21.344-5.076-18.817-1.279-26.376,6.718-29.112,11.213" transform="translate(45.444 100.908)" fill="#3e54af"/>
            <path id="Path_14259" data-name="Path 14259" d="M182.106,323.622c2.289-8.956,10.166-18.1,18.555-20.11,2.655-.636,5.572-1.332,8.692-2.07-24.507-3.729-50.315-7.05-61.31-6.456C124.35,296.265,8.321,320.895,8.321,320.895s56.612-5.54,89.656-5.048c30.131.449,83.443,12.753,83.443,12.753l-.7-2.07a13.4,13.4,0,0,1,1.386-2.909" transform="translate(2.726 96.625)" fill="#fff"/>
            <path id="Path_14260" data-name="Path 14260" d="M182.106,323.622c2.289-8.956,10.166-18.1,18.555-20.11,2.655-.636,5.572-1.332,8.692-2.07-24.507-3.729-50.315-7.05-61.31-6.456C124.35,296.265,8.321,320.895,8.321,320.895s56.612-5.54,89.656-5.048c30.131.449,83.443,12.753,83.443,12.753l-.7-2.07A13.4,13.4,0,0,1,182.106,323.622Z" transform="translate(2.726 96.625)" fill="none" stroke="#263238" stroke-linecap="round" stroke-linejoin="round" stroke-width="2.5"/>
            <path id="Path_14261" data-name="Path 14261" d="M153.149,315.245s-41.125-7.128-58.561-8.426c-11.631-.866-22.671-.516-22.671-.516" transform="translate(23.563 100.332)" fill="none" stroke="#263238" stroke-linecap="round" stroke-linejoin="round" stroke-width="2.5"/>
            <line id="Line_272" data-name="Line 272" x1="3.87" y1="0.57" transform="translate(178.339 407.815)" fill="none" stroke="#263238" stroke-linecap="round" stroke-linejoin="round" stroke-width="2.5"/>
            <path id="Path_14262" data-name="Path 14262" d="M301.141,281.6c-17-2.372-95.6,15.363-137.008,25.161-3.12.738-6.037,1.434-8.692,2.07-8.389,2.01-16.266,11.153-18.555,20.11,2.736-4.5,10.3-12.492,29.112-11.213,4.486.305,12,2.181,21.344,5.076,44.76,13.851,145.539,48.241,145.539,48.241s31.348-11.57,55.924-16.893c35.047-7.589,56.812-8.441,56.812-8.441S324.465,284.856,301.141,281.6" transform="translate(44.849 92.191)" fill="#fff"/>
            <path id="Path_14263" data-name="Path 14263" d="M301.141,281.6c-17-2.372-95.6,15.363-137.008,25.161-3.12.738-6.037,1.434-8.692,2.07-8.389,2.01-16.266,11.153-18.555,20.11,2.736-4.5,10.3-12.492,29.112-11.213,4.486.305,12,2.181,21.344,5.076,44.76,13.851,145.539,48.241,145.539,48.241s31.348-11.57,55.924-16.893c35.047-7.589,56.812-8.441,56.812-8.441S324.465,284.856,301.141,281.6Z" transform="translate(44.849 92.191)" fill="none" stroke="#263238" stroke-linecap="round" stroke-linejoin="round" stroke-width="2.5"/>
            <path id="Path_14264" data-name="Path 14264" d="M138.176,319.447l.7,2.07a20.247,20.247,0,0,1,.685-4.979,13.4,13.4,0,0,0-1.386,2.909" transform="translate(45.271 103.709)" fill="#fff"/>
            <path id="Path_14265" data-name="Path 14265" d="M138.176,319.447l.7,2.07a20.247,20.247,0,0,1,.685-4.979A13.4,13.4,0,0,0,138.176,319.447Z" transform="translate(45.271 103.709)" fill="none" stroke="#263238" stroke-linecap="round" stroke-linejoin="round" stroke-width="2.5"/>
            <path id="Path_14266" data-name="Path 14266" d="M517.58,311.286s-134.45,31.784-134.848,31.757c.491.376-27.545-.375-27.137-.876-.126-.089-38.2-.759-38.475-.863.528.081-21.257,5.44-21.322,4.8.1-.24-.4-15.69,0-16.859-.239.624-.127.062,0,0,.235-.09-12.157,11.937-12.395,12.055h0c-.319.04.332,0,0,0-1.142.027.916.239,0,0-4.355-1.062-10.912-8.063-10.4-7.514h0s-18.349,5.237-18.228,5.337c.188-.052,2.125,1.419,0,0-.066-.04.066.053,0,0-.125.5-2.286-26.09-2.549-26.951.156-.373,1.739-12.971,3.624-16.011.345-.558.69-1.089,1.062-1.62a50.029,50.029,0,0,1,5.749-7.3,15.128,15.128,0,0,1,4.74-3.478,3.986,3.986,0,0,1,.637-.212h0s19.277-2.39,29.633-2.615c8.125-.159-1.062-1.049,0,0,.7-.651,14.6.876,18.069-1.221a14.927,14.927,0,0,1,1.381-.73c.239-.119.478-.226.73-.332s.544-.239.823-.332h0L404,267.541a17.533,17.533,0,0,0-2.124-6.094c-5.231-8.43-16.489-26.752-19.835-33.7-.358-.73-.611-1.328-.77-1.752.12-.173.146-.2.266-.372a68.243,68.243,0,0,1,10.382.717c.651.093,1.288.2,1.938.305l38.677-.977,45.721-17.243c.239.637,1.779,1.067,4.129,6.643Z" transform="translate(82.638 68.288)" fill="#fcd8c3"/>
            <path id="Path_14267" data-name="Path 14267" d="M292.5,51.412a66.45,66.45,0,0,1,.864,6.783c.046.988.054,1.986.1,2.975a66.034,66.034,0,0,1-.5,9.515c-3.554,25.647-48.05,47.5-48.05,47.5l-50.459-14.558s2.388-70.27,1.361-71.5c-.4-.481.631-1.083.955-1.591a12.23,12.23,0,0,1,.728-1.186,20.715,20.715,0,0,1,1.2-1.921,52.893,52.893,0,0,1,11.864-12.453q.978-.769,1.983-1.429c.67-.441,1.381-.891,2.051-1.332l2.156-1.241A48.061,48.061,0,0,1,232.443,5.59a40.776,40.776,0,0,1,4.72-.55c26.7-1.77,50.309,18.567,55.34,46.372" transform="translate(63.711 1.616)" fill="#fcd8c3"/>
            <path id="Path_14268" data-name="Path 14268" d="M183.8,29.618,185.551,8.8l20.823,1.752a14.712,14.712,0,0,1,2.779,5.036c.171-.122.324-.271.5-.389.656-.45,1.349-.912,2.043-1.375.706-.424,1.41-.847,2.156-1.284A46.106,46.106,0,0,1,229.5,7.047a38.756,38.756,0,0,1,4.736-.485c.746-.02,1.516-.088,2.274-.069s1.5,0,2.272.058c.759.019,1.525.077,2.257.146,1.463.138,2.9.325,4.317.6,1.508.292,17.306-6.212,18.762-5.822.651.219-13.041,7.331-12.389,7.55a9.08,9.08,0,0,0,.916.263c18.761,6.755,33.756,24.971,37.929,47.661a66.413,66.413,0,0,1,1,7.25c.073,1.062.1,2.1.133,3.173a73.7,73.7,0,0,1-.321,10.16c-.15,1.423-.389,2.832-.625,4.239-13.964-14.492-43.28-15.039-43.28-15.039L208.18,41.383Z" transform="translate(60.219 0.478)" fill="#3e54af"/>
            <path id="Path_14269" data-name="Path 14269" d="M150,346c-13.256-14.141-27.422-41.4-33.583-59.782L85.7,194.573s17.777-5.739,24.914-8.132l5.163,12.092,32.111,107.108C152.925,319.835,150,346,150,346" transform="translate(28.077 61.084)" fill="#9abae3"/>
            <path id="Path_14270" data-name="Path 14270" d="M125.043,288.212,98.555,209.186,110.61,186.44,85.7,194.573l30.717,91.648C122.572,304.6,136.74,331.862,150,346c0,0,.356-3.192.605-7.943a209.985,209.985,0,0,1-25.558-49.847" transform="translate(28.077 61.084)" fill="#fff"/>
            <path id="Path_14271" data-name="Path 14271" d="M147.176,281.742c7.643,1.325,9.284-6.436,5.986-12.559-8.089-15.019-59.374-28.228-59.374-28.228l-1.638,24.209L85.267,281.3l7.8,13.365,2.4,19.5c11.472-.617,37.53,4.835,43.169.426,6.093-4.765.317-13.592.317-13.592s8.926-.251,13.09-6.427c4.238-6.284-4.86-12.832-4.86-12.832" transform="translate(27.936 78.945)" fill="#fcd8c3"/>
            <path id="Path_14272" data-name="Path 14272" d="M200.218,19.4C200.843,18.466,225.2,0,225.2,0l42.309,1.938,21.909,23.515,2.169,21.181-13.2,4.695Z" transform="translate(65.598)" fill="#3e54af"/>
            <rect id="Rectangle_10185" data-name="Rectangle 10185" width="39.295" height="39.295" transform="translate(324.342 37.796)" fill="#9abae3"/>
            <rect id="Rectangle_10186" data-name="Rectangle 10186" width="27.462" height="27.462" transform="translate(330.258 43.712)" fill="#fff"/>
            <path id="Path_14273" data-name="Path 14273" d="M208.415,3.3H239.4L269.76,14.86l20.857,27.771-11.65-1.617L263.155,19.135l-25.633-8.01L210,9.372l-5.191,3.845Z" transform="translate(67.104 1.081)" fill="#9abae3"/>
            <path id="Path_14274" data-name="Path 14274" d="M272.492,68.212l11.764,54.664-59.187,9.389L222.594,79.6Z" transform="translate(72.929 22.349)" fill="#fcd8c3"/>
            <path id="Path_14275" data-name="Path 14275" d="M121.6,226.4l11.977,6.851,3.158-12.679Z" transform="translate(39.839 72.267)" fill="#263238"/>
            <path id="Path_14276" data-name="Path 14276" d="M443.505,197.9l-14.661,26.74-6.369-12.765Z" transform="translate(138.417 64.84)" fill="#263238"/>
            <path id="Path_14277" data-name="Path 14277" d="M103.085,259.048,142.1,275.813l-41.345-12Z" transform="translate(33.011 84.873)" fill="#263238"/>
            <path id="Path_14278" data-name="Path 14278" d="M129.163,286.636l-30.666-12v6Z" transform="translate(32.271 89.982)" fill="#263238"/>
            <path id="Path_14279" data-name="Path 14279" d="M137.675,263.255l13.146-4.207,6,13.665-24.28,9.139" transform="translate(43.424 84.873)" fill="none" stroke="#263238" stroke-width="1"/>
          </g>
        </g>
      </g>
    </g>
  </g>
</svg>
