<svg xmlns="http://www.w3.org/2000/svg" xmlns:xlink="http://www.w3.org/1999/xlink" width="1001" height="669.584" viewBox="0 0 1001 669.584">
  <defs>
    <clipPath id="clip-path">
      <rect id="Rectangle_11873" data-name="Rectangle 11873" width="1001" height="669.584" transform="translate(-1 1835.416)" fill="#fff"/>
    </clipPath>
    <clipPath id="clip-path-2">
      <rect id="Rectangle_11525" data-name="Rectangle 11525" width="411.15" height="572.871" fill="none"/>
    </clipPath>
  </defs>
  <g id="Mask_Group_81" data-name="Mask Group 81" transform="translate(1 -1835.416)" clip-path="url(#clip-path)">
    <g id="Group_30596" data-name="Group 30596" transform="translate(0 -1550)">
      <g id="_3" data-name="3" transform="translate(368.663 3467.777)">
        <path id="Path_15729" data-name="Path 15729" d="M131.149,61.576,149.5,105.916l-10.7,53.514h-35.93Z" transform="translate(36.784 22.02)" fill="#3e54af"/>
        <g id="Group_30137" data-name="Group 30137">
          <g id="Group_30136" data-name="Group 30136" clip-path="url(#clip-path-2)">
            <path id="Path_15730" data-name="Path 15730" d="M112.481,143.228l112.38,37.46s52.75-4.587,65.746,22.934L173.64,208.21l-74.155-3.822Z" transform="translate(35.576 51.219)" fill="#d57f66"/>
            <path id="Path_15731" data-name="Path 15731" d="M187.105,336.671l16.274,98.892L269.4,411.17,257.47,348.845Z" transform="translate(66.91 120.395)" fill="#e58f7c"/>
            <path id="Path_15732" data-name="Path 15732" d="M16.143,174.763l245.152,21.5c32.657,2.865,49.942,26.659,52.122,64.861L329.967,425.9l-79.124,14.907-38.99-154.427-86.387,10.7C71.45,307.318,17.654,272.02,16.8,217.05Z" transform="translate(5.773 62.496)" fill="#0e1246"/>
            <path id="Path_15733" data-name="Path 15733" d="M264.016,378.6c-16.788,5.755-30.181,19.141-44.8,20.926a49.223,49.223,0,0,1-26.359-4.456l6.1,37.152L342.184,417.8Z" transform="translate(68.966 135.389)"/>
            <path id="Path_15734" data-name="Path 15734" d="M151.983,31.543l-63.2,11.723,34.146,40.773,43.832-14.016Z" transform="translate(31.75 11.28)" fill="#e58f7c"/>
            <path id="Path_15735" data-name="Path 15735" d="M126.841,33.682c2.236,12.157,5.54,29.89,8.023,42.189l18.29-5.849-14.78-38.48Z" transform="translate(45.359 11.28)" fill="#d57f66"/>
            <path id="Path_15736" data-name="Path 15736" d="M164.111,60.941l12.981,17.73-35.917,155.81L0,221.74,25.737,127.2,128.18,33.42s21.542,15.531,35.932,27.521" transform="translate(0 11.951)" fill="#2f4793"/>
            <path id="Path_15737" data-name="Path 15737" d="M147.676,81.088,113.019,29.1l-18.6,5.861,40.519,58.866,14.27-8.154Z" transform="translate(33.764 10.407)" fill="#3e54af"/>
            <path id="Path_15738" data-name="Path 15738" d="M195.592,34.345l-8.307-14.419a21.609,21.609,0,0,0-29.875-7.719l-14.768,8.9a29.34,29.34,0,0,0-9.465,41.108l5.7,8.777a25.014,25.014,0,0,0,33.083,8.269l1.32-.935,1.477,2.4,5.513-7.353,8.013-5.678a25.355,25.355,0,0,0,7.312-33.348" transform="translate(45.93 3.255)" fill="#eaab98"/>
            <path id="Path_15739" data-name="Path 15739" d="M170.24,55.1l-6.88,9.175L160.3,59.3" transform="translate(57.324 19.704)" fill="none" stroke="#0e1246" stroke-linecap="round" stroke-width="0.5"/>
            <path id="Path_15740" data-name="Path 15740" d="M203.577,67.273,184.534,49.448,166.4,59.6l-4.488-8.238L127.452,52.9V21.466L155.471,0l40.057,2.3,13.416,30.091Z" transform="translate(45.578 0)" fill="#2a497a"/>
            <path id="Path_15741" data-name="Path 15741" d="M144.528,48.811,164.8,39.166s-3.633-13.584-14.347-7.358-5.921,17-5.921,17" transform="translate(51.301 10.791)" fill="#eaab98"/>
            <path id="Path_15742" data-name="Path 15742" d="M149.977,42.286s6.625-4.841,2.548-9.429" transform="translate(53.632 11.75)" fill="none" stroke="#0e1246" stroke-linecap="round" stroke-width="0.5"/>
            <path id="Path_15743" data-name="Path 15743" d="M155.4,331.967l-3.823,100.149,69.569-10.7.764-63.453Z" transform="translate(54.203 118.713)" fill="#eaab98"/>
            <path id="Path_15744" data-name="Path 15744" d="M4.748,172.51l242.859,21.5a57.642,57.642,0,0,1,52.123,64.861L276.142,440.083l-74.919-11.468-3.059-144.49L44.3,295.358,3.112,214.8Z" transform="translate(1.113 61.69)" fill="#2a497a"/>
            <path id="Path_15745" data-name="Path 15745" d="M211.557,190.829,4.678,172.51,3.31,207.877Z" transform="translate(1.184 61.69)" fill="#274571"/>
            <path id="Path_15746" data-name="Path 15746" d="M222.466,382.194c-17.028,5-31.008,17.77-45.692,18.9a49.215,49.215,0,0,1-26.134-5.633l-2.446,37.388H298.8Z" transform="translate(52.995 136.674)"/>
            <path id="Path_15747" data-name="Path 15747" d="M63.212,99.117,23.562,151.65c.571.2,18.485,38.021,41.474,39.881H76.161c5.539.448,9.832.431,12.362-4.517l32.79-48.653Z" transform="translate(11.962 35.445)" fill="#e58f7c"/>
            <path id="Path_15748" data-name="Path 15748" d="M138.523,47.868,160.3,79.778l-47.243,94.31L44.085,134.044,92.3,52.156Z" transform="translate(15.765 17.118)" fill="#3e54af"/>
            <path id="Path_15749" data-name="Path 15749" d="M67.238,135.87l112.575-1.458,10.1-13.3c1.245-.614,11.234-10.843,11.234-10.843l7.772-2.574c1.92-.633,3.032.713,3.754,2.666a4.009,4.009,0,0,1-2.07,5.064l-4.7,4.339-2.088,7.594,20.353-5.967h16.813l3.777,3.672.041.631c-.041-.631-3.435,4.18-3.435,4.18l-13.542,1.279,16.663,1.823,3.38,3.651.048.743-3.679,4.194-16.412.439,16.131,2.718,3.179,3.883v1.514l-3.888,3.708-15.422-.433,14.239,4.624,2.646,3.475a3.847,3.847,0,0,1-4.351,4.168l-8.88-1.419-16.7,3.254s-10.96,14.1-33.922,5.965L65.174,194.77l-25.05-15.211-13.963-30.8Z" transform="translate(9.355 38.457)" fill="#eaab98"/>
            <path id="Path_15750" data-name="Path 15750" d="M177.989,124.672s-7.2,0-9.943,1.029" transform="translate(60.094 44.583)" fill="none" stroke="#0e1246" stroke-linecap="round" stroke-width="0.5"/>
            <path id="Path_15751" data-name="Path 15751" d="M176.637,132.948a54.437,54.437,0,0,0-7.328.107" transform="translate(60.546 47.514)" fill="none" stroke="#0e1246" stroke-linecap="round" stroke-width="0.5"/>
            <path id="Path_15752" data-name="Path 15752" d="M168.3,142.123a14.61,14.61,0,0,1,8.7-.717" transform="translate(60.184 50.447)" fill="none" stroke="#0e1246" stroke-linecap="round" stroke-width="0.5"/>
            <path id="Path_15753" data-name="Path 15753" d="M161.005,158.758l-8.7-10.094c-.144.041-106.028,31.232-106.028,31.232Z" transform="translate(29.207 53.163)" fill="#e58f7c"/>
            <path id="Path_15754" data-name="Path 15754" d="M256.52,502.924h12.232V195.6H239.7Z" transform="translate(85.718 69.947)" fill="#e59022"/>
            <path id="Path_15755" data-name="Path 15755" d="M241.045,220.164l27.706-7.489V195.6H239.7Z" transform="translate(85.718 69.947)" fill="#ce761c"/>
            <path id="Path_15756" data-name="Path 15756" d="M159.582,502.924H147.35V195.6H176.4Z" transform="translate(52.693 69.947)" fill="#e59022"/>
            <path id="Path_15757" data-name="Path 15757" d="M147.428,219.718l28.021-6.208.785-17.06-29.02-1.333Z" transform="translate(52.644 69.774)" fill="#ce761c"/>
            <rect id="Rectangle_11518" data-name="Rectangle 11518" width="186.114" height="20.641" transform="translate(183.224 251.02)" fill="#eaab28"/>
            <path id="Path_15758" data-name="Path 15758" d="M170.625,157.851l71.353-27.012,4.077,8.664L181.838,165.5Z" transform="translate(61.016 46.789)" fill="#0e1246"/>
            <path id="Path_15759" data-name="Path 15759" d="M184.668,91.4l5.69,9.71-16.92,15.7-.409,23.036,11.34,17.213,12.613,11.328L187.809,179.6,161.822,154.93l-7.9-27.764,6.326-20.131S180,93.815,184.668,91.4" transform="translate(55.044 32.685)" fill="#efc53d"/>
            <rect id="Rectangle_11519" data-name="Rectangle 11519" width="5.884" height="14.483" transform="matrix(0.859, -0.512, 0.512, 0.859, 273.1, 155.134)" fill="#0e1246"/>
            <rect id="Rectangle_11520" data-name="Rectangle 11520" width="17.938" height="12.22" transform="translate(263.522 150.827) rotate(-30.761)"/>
            <rect id="Rectangle_11521" data-name="Rectangle 11521" width="14.937" height="28.967" transform="translate(223.371 80.442) rotate(-30.761)" fill="#efc53d"/>
            <rect id="Rectangle_11522" data-name="Rectangle 11522" width="19.972" height="11.787" transform="matrix(0.859, -0.512, 0.512, 0.859, 236.025, 106.622)"/>
            <rect id="Rectangle_11523" data-name="Rectangle 11523" width="28.968" height="42.998" transform="translate(238.179 119.034) rotate(-30.763)" fill="#efc53d"/>
            <path id="Path_15760" data-name="Path 15760" d="M194.056,90.955a11.541,11.541,0,1,1-15.822-4.014,11.541,11.541,0,0,1,15.822,4.014" transform="translate(61.721 30.509)"/>
            <path id="Path_15761" data-name="Path 15761" d="M188.333,92.22a6.444,6.444,0,1,1-8.834-2.241,6.444,6.444,0,0,1,8.834,2.241" transform="translate(63.064 31.852)" fill="#3e54af"/>
            <path id="Path_15762" data-name="Path 15762" d="M205.444,147.357H170.278l-1.53,38.155h36.7Z" transform="translate(60.345 52.696)" fill="#3e54af"/>
            <rect id="Rectangle_11524" data-name="Rectangle 11524" width="105.499" height="12.741" transform="translate(213.804 237.768)" fill="#0e1246"/>
            <path id="Path_15763" data-name="Path 15763" d="M227.633,165.142H195.8v-8.4h40.23a8.4,8.4,0,0,1-8.4,8.4" transform="translate(70.02 56.052)" fill="#efc53d"/>
            <path id="Path_15764" data-name="Path 15764" d="M125.983,470.589H114L92.727,271.056h16.055Z" transform="translate(33.159 96.931)" fill="#0e1246"/>
            <path id="Path_15765" data-name="Path 15765" d="M11.638,470.589H23.62L44.894,271.056H28.839Z" transform="translate(4.162 96.931)" fill="#0e1246"/>
            <path id="Path_15766" data-name="Path 15766" d="M147.89,284.156H19.456a12.041,12.041,0,1,1,0-24.081H147.89a12.041,12.041,0,1,1,0,24.081" transform="translate(2.652 93.004)" fill="#eaab28"/>
          </g>
        </g>
      </g>
    </g>
  </g>
</svg>
