<svg xmlns="http://www.w3.org/2000/svg" width="195.564" height="86.442" viewBox="0 0 195.564 86.442">
  <g id="Group_28466" data-name="Group 28466" transform="translate(-92.473 -28)">
    <g id="Group_28412" data-name="Group 28412" transform="translate(-7 13.669)">
      <path id="Path_53" data-name="Path 53" d="M113.233,19.717l-7.067,19.789h3.957l1.511-4.411h8.475l1.52,4.411h3.957l-7.067-19.789Zm-.493,12.156,2.84-8.283h.565L119,31.873Z" transform="translate(93.44 27.614)" fill="#fff"/>
      <path id="Path_54" data-name="Path 54" d="M140.152,28.339h-.565l-4.692-8.622h-4.043l7.208,12.975V39.5h3.648V32.692l7.208-12.975h-4.043Z" transform="translate(93.699 27.614)" fill="#fff"/>
      <path id="Path_55" data-name="Path 55" d="M167.213,32.162a4.967,4.967,0,0,0,2.722-.793,5.7,5.7,0,0,0,1.983-2.188,6.61,6.61,0,0,0,.738-3.145,6.838,6.838,0,0,0-.766-3.268,5.644,5.644,0,0,0-2.119-2.244,5.841,5.841,0,0,0-3.049-.806h-8.779V38.862h3.528V32.216h1.039l6.264,6.646h4.375l-6.431-6.7Zm-5.743-3.145V23.027h5.087a2.406,2.406,0,0,1,1.3.369,2.668,2.668,0,0,1,.944,1.054,3.594,3.594,0,0,1,0,3.117,2.764,2.764,0,0,1-.944,1.067,2.335,2.335,0,0,1-1.3.383Z" transform="translate(94.459 27.806)" fill="#fff"/>
      <path id="Path_56" data-name="Path 56" d="M193.445,19.717h-5.114l-6.837,19.145h3.828l1.462-4.267h8.2l1.47,4.267h3.828Zm-5.591,11.76,2.747-8.014h.547l2.761,8.014Z" transform="translate(94.755 27.806)" fill="#fff"/>
    </g>
    <g id="Group_28411" data-name="Group 28411" transform="translate(0 0.442)">
      <path id="Path_75" data-name="Path 75" d="M42.953,0V86.442L21.342,64.831Z" transform="translate(92.741 27.558)" fill="#a6b8d8"/>
      <path id="Path_76" data-name="Path 76" d="M0,43.221,43.221,0,21.61,64.831Z" transform="translate(92.473 27.558)" fill="#fff"/>
      <path id="Path_77" data-name="Path 77" d="M42.684,0V86.442l21.61-21.611Z" transform="translate(93.01 27.558)" fill="#fff"/>
      <path id="Path_78" data-name="Path 78" d="M85.905,43.221,42.685,0l21.61,64.831Z" transform="translate(93.01 27.558)" fill="#a6b8d8"/>
    </g>
  </g>
</svg>
