<svg id="Group_25779" data-name="Group 25779" xmlns="http://www.w3.org/2000/svg" xmlns:xlink="http://www.w3.org/1999/xlink" width="203.301" height="86.442" viewBox="0 0 203.301 86.442">
  <defs>
    <clipPath id="clip-path">
      <rect id="Rectangle_16" data-name="Rectangle 16" width="203.301" height="86.442" fill="none"/>
    </clipPath>
  </defs>
  <path id="Path_53" data-name="Path 53" d="M113.233,19.717l-7.067,19.789h3.957l1.511-4.411h8.475l1.52,4.411h3.957l-7.067-19.789Zm-.493,12.156,2.84-8.283h.565L119,31.873Z" transform="translate(0.967 0.057)" fill="#fff"/>
  <path id="Path_54" data-name="Path 54" d="M140.152,28.339h-.565l-4.692-8.622h-4.043l7.208,12.975V39.5h3.648V32.692l7.208-12.975h-4.043Z" transform="translate(1.226 0.057)" fill="#fff"/>
  <g id="Group_9" data-name="Group 9">
    <g id="Group_8" data-name="Group 8" clip-path="url(#clip-path)">
      <path id="Path_55" data-name="Path 55" d="M167.213,32.162a4.967,4.967,0,0,0,2.722-.793,5.7,5.7,0,0,0,1.983-2.188,6.61,6.61,0,0,0,.738-3.145,6.838,6.838,0,0,0-.766-3.268,5.644,5.644,0,0,0-2.119-2.244,5.841,5.841,0,0,0-3.049-.806h-8.779V38.862h3.528V32.216h1.039l6.264,6.646h4.375l-6.431-6.7Zm-5.743-3.145V23.027h5.087a2.406,2.406,0,0,1,1.3.369,2.668,2.668,0,0,1,.944,1.054,3.594,3.594,0,0,1,0,3.117,2.764,2.764,0,0,1-.944,1.067,2.335,2.335,0,0,1-1.3.383Z" transform="translate(1.986 0.248)" fill="#fff"/>
      <path id="Path_56" data-name="Path 56" d="M193.445,19.717h-5.114l-6.837,19.145h3.828l1.462-4.267h8.2l1.47,4.267h3.828Zm-5.591,11.76,2.747-8.014h.547l2.761,8.014Z" transform="translate(2.282 0.248)" fill="#fff"/>
      <path id="Path_57" data-name="Path 57" d="M106.168,52.89V47.876h1.9a2.45,2.45,0,0,1,1.255.33,2.384,2.384,0,0,1,.888.9,2.683,2.683,0,0,1,0,2.549,2.392,2.392,0,0,1-.888.9,2.459,2.459,0,0,1-1.255.329Zm1.912-1.282a1.085,1.085,0,0,0,.57-.158,1.145,1.145,0,0,0,.414-.436,1.359,1.359,0,0,0,0-1.261,1.148,1.148,0,0,0-.414-.437,1.084,1.084,0,0,0-.57-.157h-.6v2.449Z" transform="translate(1.335 0.602)" fill="#fff"/>
      <path id="Path_58" data-name="Path 58" d="M114,52.89V47.877h3.5v1.189h-2.191v.744h2.048v1.14h-2.048v.75H117.5v1.19Z" transform="translate(1.433 0.602)" fill="#fff"/>
      <path id="Path_59" data-name="Path 59" d="M121.055,52.89V47.877h3.5v1.189h-2.191v.744h2.048v1.14h-2.048v.75h2.191v1.19Z" transform="translate(1.522 0.602)" fill="#fff"/>
      <path id="Path_60" data-name="Path 60" d="M128.114,52.89V47.877h1.963l.865,2.757h.145l.859-2.757h1.961V52.89H132.59V50.154h-.144l-.86,2.736h-1.145l-.875-2.736h-.142V52.89Z" transform="translate(1.611 0.602)" fill="#fff"/>
      <path id="Path_61" data-name="Path 61" d="M137.556,52.89V47.877h3.5v1.189h-2.191v.744h2.048v1.14h-2.048v.75h2.191v1.19Z" transform="translate(1.73 0.602)" fill="#fff"/>
      <path id="Path_62" data-name="Path 62" d="M144.615,52.89V47.876h1.9a2.45,2.45,0,0,1,1.255.33,2.384,2.384,0,0,1,.888.9,2.682,2.682,0,0,1,0,2.549,2.391,2.391,0,0,1-.888.9,2.459,2.459,0,0,1-1.255.329Zm1.912-1.282a1.085,1.085,0,0,0,.57-.158,1.146,1.146,0,0,0,.414-.436,1.36,1.36,0,0,0,0-1.261,1.149,1.149,0,0,0-.414-.437,1.084,1.084,0,0,0-.57-.157h-.6v2.449Z" transform="translate(1.818 0.602)" fill="#fff"/>
      <rect id="Rectangle_12" data-name="Rectangle 12" width="2.521" height="1.132" transform="translate(154.233 50.885)" fill="#fff"/>
      <path id="Path_63" data-name="Path 63" d="M159.138,52.89V49.158h-1.326V47.877h3.975v1.281h-1.325V52.89Z" transform="translate(1.984 0.602)" fill="#fff"/>
      <path id="Path_64" data-name="Path 64" d="M167.263,52.962a2.383,2.383,0,0,1-2.126-1.253,2.881,2.881,0,0,1,0-2.651,2.452,2.452,0,0,1,3.373-.919,2.414,2.414,0,0,1,.885.919,2.865,2.865,0,0,1,0,2.651,2.424,2.424,0,0,1-.885.92,2.4,2.4,0,0,1-1.246.332m0-1.282a1.074,1.074,0,0,0,.58-.161,1.121,1.121,0,0,0,.408-.455,1.61,1.61,0,0,0,0-1.361,1.128,1.128,0,0,0-.408-.455,1.1,1.1,0,0,0-1.149,0,1.123,1.123,0,0,0-.412.455,1.62,1.62,0,0,0,0,1.361,1.116,1.116,0,0,0,.412.455,1.064,1.064,0,0,0,.569.161" transform="translate(2.072 0.601)" fill="#fff"/>
      <rect id="Rectangle_13" data-name="Rectangle 13" width="2.521" height="1.132" transform="translate(175.232 50.885)" fill="#fff"/>
      <path id="Path_65" data-name="Path 65" d="M179.137,52.891V47.877h2.52a1.719,1.719,0,0,1,.8.175,1.217,1.217,0,0,1,.518.5,1.486,1.486,0,0,1,.179.737,1.269,1.269,0,0,1-.082.458,1.387,1.387,0,0,1-.2.37.977.977,0,0,1-.25.232v.035a1.206,1.206,0,0,1,.422.426,1.241,1.241,0,0,1,.185.67,1.49,1.49,0,0,1-.178.737,1.216,1.216,0,0,1-.519.5,1.725,1.725,0,0,1-.8.176Zm2.293-3.059a.419.419,0,0,0,.2-.054.416.416,0,0,0,0-.724.418.418,0,0,0-.2-.053h-.982v.83Zm.071,1.934a.42.42,0,0,0,.2-.054.416.416,0,0,0-.2-.778h-1.053v.831Z" transform="translate(2.252 0.602)" fill="#fff"/>
      <path id="Path_66" data-name="Path 66" d="M186.726,52.89V47.877h3.5v1.189h-2.191v.744h2.048v1.14h-2.048v.75h2.191v1.19Z" transform="translate(2.348 0.602)" fill="#fff"/>
      <path id="Path_67" data-name="Path 67" d="M109.321,65.754a3.4,3.4,0,0,1-1.661-.393,2.711,2.711,0,0,1-1.106-1.111,3.5,3.5,0,0,1-.388-1.693V58.313h1.939v4.245a1.5,1.5,0,0,0,.156.693,1.127,1.127,0,0,0,.435.466,1.246,1.246,0,0,0,1.232,0,1.135,1.135,0,0,0,.445-.466,1.451,1.451,0,0,0,.163-.693V58.313h1.918v4.245a3.562,3.562,0,0,1-.382,1.693,2.7,2.7,0,0,1-1.1,1.111,3.376,3.376,0,0,1-1.657.393" transform="translate(1.335 0.733)" fill="#fff"/>
      <path id="Path_68" data-name="Path 68" d="M117.367,65.65V58.313h2.243l1.981,3.826h.21V58.313h1.929V65.65h-2.243L119.5,61.824h-.211V65.65Z" transform="translate(1.476 0.733)" fill="#fff"/>
      <rect id="Rectangle_14" data-name="Rectangle 14" width="1.918" height="7.337" transform="translate(130.299 59.045)" fill="#fff"/>
      <path id="Path_69" data-name="Path 69" d="M137.27,65.65l-2.337-7.337h2.085l1.488,4.885h.21l1.51-4.885h2.085l-2.336,7.337Z" transform="translate(1.697 0.733)" fill="#fff"/>
      <path id="Path_70" data-name="Path 70" d="M146.578,65.65V58.313H151.7v1.741H148.5v1.09h3v1.667h-3v1.1H151.7v1.74Z" transform="translate(1.843 0.733)" fill="#fff"/>
      <path id="Path_71" data-name="Path 71" d="M156.494,65.65V58.313h3.564a2.543,2.543,0,0,1,1.289.325,2.33,2.33,0,0,1,.891.911,2.771,2.771,0,0,1,.325,1.363,2.659,2.659,0,0,1-.294,1.259,2.269,2.269,0,0,1-.771.864,1.805,1.805,0,0,1-1,.31h-.158v-.43l2.38,2.736h-2.338l-1.813-2.234h-.157V65.65Zm3.439-3.952a.624.624,0,0,0,.35-.105.723.723,0,0,0,.257-.283.859.859,0,0,0,.094-.409.872.872,0,0,0-.094-.4.693.693,0,0,0-.257-.284.659.659,0,0,0-.35-.1h-1.52V61.7Z" transform="translate(1.968 0.733)" fill="#fff"/>
      <path id="Path_72" data-name="Path 72" d="M170.011,65.756a3.948,3.948,0,0,1-1.682-.33,2.412,2.412,0,0,1-1.07-.916,2.477,2.477,0,0,1-.361-1.32h1.929a.781.781,0,0,0,.136.456.887.887,0,0,0,.4.3,1.681,1.681,0,0,0,.645.11,1.554,1.554,0,0,0,.832-.168.5.5,0,0,0,.258-.438.477.477,0,0,0-.2-.389,1.623,1.623,0,0,0-.7-.241l-1.151-.211a3.565,3.565,0,0,1-1.127-.393,1.628,1.628,0,0,1-.65-.686,2.3,2.3,0,0,1-.215-1.039,2.059,2.059,0,0,1,.34-1.162,2.354,2.354,0,0,1,.979-.817,3.544,3.544,0,0,1,1.531-.3,3.919,3.919,0,0,1,1.662.325,2.34,2.34,0,0,1,1.048.907,2.538,2.538,0,0,1,.351,1.337h-1.919a.779.779,0,0,0-.136-.452.9.9,0,0,0-.383-.309,1.456,1.456,0,0,0-.592-.11,1.254,1.254,0,0,0-.713.168.505.505,0,0,0-.24.429.419.419,0,0,0,.167.356,1.509,1.509,0,0,0,.618.2l1.154.21a3.91,3.91,0,0,1,1.2.409,1.673,1.673,0,0,1,.67.7,2.363,2.363,0,0,1,.22,1.075,2.126,2.126,0,0,1-.335,1.179,2.251,2.251,0,0,1-1.023.822,4.056,4.056,0,0,1-1.65.3" transform="translate(2.098 0.732)" fill="#fff"/>
      <rect id="Rectangle_15" data-name="Rectangle 15" width="1.918" height="7.337" transform="translate(179.897 59.045)" fill="#fff"/>
      <path id="Path_73" data-name="Path 73" d="M186.081,65.65V60.189h-1.939V58.313h5.817v1.876h-1.939V65.65Z" transform="translate(2.315 0.733)" fill="#fff"/>
      <path id="Path_74" data-name="Path 74" d="M196.287,65.65V63.365l-2.653-5.053h2.149l1.364,2.736h.209l1.363-2.736h2.149l-2.651,5.053V65.65Z" transform="translate(2.435 0.733)" fill="#fff"/>
      <path id="Path_75" data-name="Path 75" d="M42.953,0V86.442L21.342,64.831Z" transform="translate(0.268)" fill="#a6b8d8"/>
      <path id="Path_76" data-name="Path 76" d="M0,43.221,43.221,0,21.61,64.831Z" transform="translate(0 0)" fill="#fff"/>
      <path id="Path_77" data-name="Path 77" d="M42.684,0V86.442l21.61-21.611Z" transform="translate(0.537)" fill="#fff"/>
      <path id="Path_78" data-name="Path 78" d="M85.905,43.221,42.685,0l21.61,64.831Z" transform="translate(0.537 0)" fill="#a6b8d8"/>
    </g>
  </g>
</svg>
