<svg xmlns="http://www.w3.org/2000/svg" xmlns:xlink="http://www.w3.org/1999/xlink" width="477.466" height="582.527" viewBox="0 0 477.466 582.527">
  <defs>
    <clipPath id="clip-path">
      <path id="Path_12976" data-name="Path 12976" d="M8700.463-9144.191l475.665,212.91-296.85,368.575Z" fill="none" stroke="#707070" stroke-width="1"/>
    </clipPath>
  </defs>
  <g id="Group_28458" data-name="Group 28458" transform="translate(-8699.463 9144.191)">
    <g id="Mask_Group_77" data-name="Mask Group 77" transform="translate(-1)" clip-path="url(#clip-path)">
      <path id="Path_9737" data-name="Path 9737" d="M62.661,47.049C39.928,59.906,0,107.18,0,107.18s42.652,52.658,49.962,58.6c4.25,3.456,21.677-35.343,17.675-39.619C62.964,121.168,43.071,107.577,43,104.91,42.94,102.879,59.5,81.129,71.715,62.623c14.164-21.465,1.781-21.7-9.054-15.574" transform="translate(8805.276 -9021.92)" fill="#eb9481"/>
      <path id="Path_9738" data-name="Path 9738" d="M33.682,139.144c3.142,3.794,19.073,19.91,24.51,23.4S80,174.959,83.1,171.066s-1.486-6.885-1.486-6.885,7.51,2.671,10.27-1.531-4.524-8.627-4.524-8.627,7.913,2.182,10.368-2.207-5.617-7.609-5.617-7.609,7.142,2.332,7.643-2.136c.6-5.372-13.049-8.182-18.763-12.489-1.3-.977-24.882-21.7-24.882-21.7Z" transform="translate(8815.888 -9001.664)" fill="#edbabe"/>
      <path id="Path_9739" data-name="Path 9739" d="M83.811,138.555c-10.035-2.091-14.063-4.741-21.319-11.754-.141-.137-.376.042-.242.2,6.479,7.514,11.053,11.567,21.485,12.046.51.022.554-.392.076-.492" transform="translate(8824.874 -8995.721)" fill="#263238"/>
      <path id="Path_9740" data-name="Path 9740" d="M80.615,146.137c-10.232-3.081-14.628-5.918-22.767-12.7-.116-.1-.289.089-.181.2,7.427,7.326,12.084,11.265,22.712,13,.481.079.7-.351.237-.492" transform="translate(8823.433 -8993.625)" fill="#263238"/>
      <path id="Path_9741" data-name="Path 9741" d="M75.1,153.84c-9.692-3.7-14.646-6.6-21.7-14.2a.191.191,0,0,0-.295.243C59.549,148.332,65.7,152,74.959,154.123c.633.145.755-.05.145-.283" transform="translate(8821.994 -8991.683)" fill="#263238"/>
      <path id="Path_9742" data-name="Path 9742" d="M47.994,104.418s12.841.25,18.458,1.6S91.146,120.126,88.626,124.4c-3.255,5.522-15.716.33-21.488-3.01,0,0-7.514,12.778-17.265,10.988s-1.879-27.963-1.879-27.963" transform="translate(8819.45 -9002.757)" fill="#eb9481"/>
      <path id="Path_9743" data-name="Path 9743" d="M86.047,121.714c-6.6,2.894-13.892-1.979-19.733-4.8a.594.594,0,0,0-.871.439c-3.507,5.147-9.952,11.384-16.526,11.45a.15.15,0,0,0-.022.3c7.059.886,13.892-4.725,17.373-10.608,5.945,2.988,13.474,7.555,19.81,3.282a.034.034,0,0,0-.03-.062" transform="translate(8820.638 -8998.844)" fill="#263238"/>
      <path id="Path_9744" data-name="Path 9744" d="M66.61,121.316,39.974,161.085,0,107.384,52.926,44.672l20.234-1.731C64.07,58.234,44.222,105.178,44.613,105.93s22,15.386,22,15.386" transform="translate(8805.276 -9022.124)" fill="#2f53b4"/>
      <path id="Path_9745" data-name="Path 9745" d="M39.209,122.309c2.428-2.276,4.8-4.608,7.176-6.939,1.14-1.119,2.291-2.229,3.394-3.385,1.187-1.244,2.506-2.426,3.6-3.75a.093.093,0,0,0-.126-.137c-1.387,1.013-2.642,2.258-3.957,3.365-1.222,1.027-2.4,2.113-3.582,3.182-2.47,2.229-4.939,4.458-7.356,6.743-4.843,4.579-9.541,9.279-14.192,14.051a.125.125,0,0,0,.168.184c5.042-4.355,10.014-8.758,14.874-13.315" transform="translate(8812.877 -9001.604)" fill="#263238"/>
      <path id="Path_9746" data-name="Path 9746" d="M72.188,62.915c-9.1,15.294-29,42.265-28.6,43.015s22,15.386,22,15.386l-26.643,39.78L3.258,112.81,73.411,42.926c6.1,1.078,4.893,9.692-1.223,19.989" transform="translate(8806.302 -9022.129)" fill="#172a60"/>
      <path id="Path_9747" data-name="Path 9747" d="M6.31,311.664S4.9,374.649,4.9,374.693a241.136,241.136,0,0,0,2.016,25.894c.684-.016.164,1.333.164,1.333l.416,3.5c.028.028.042.057.07.071,0,0,96.583,2.179,99.827,1.085s.38-10.428-3.234-13.307c-3.641-2.879-39.264-18.788-39.264-18.788l-.659-62.939Z" transform="translate(8806.819 -8937.506)" fill="#eb9481"/>
      <path id="Path_9756" data-name="Path 9756" d="M1.489,435.714l67.309.638s1.7-117.389,1.988-153.937c.333-41.743-2.033-166.966-2.033-166.966H18.429L12.642,174.1l2.134,111.716Z" transform="translate(8805.745 -8999.282)" fill="#263238"/>
      <path id="Path_9758" data-name="Path 9758" d="M48.3,358.342c.785-18.12.558-42.739,1.055-60.869q1.491-54.4.785-108.82c-.256-20.353-.8-40.7-1.407-61.044-.007-.233.347-.22.36.009,1.927,36.42,2.659,72.911,2.7,109.379.041,36.28.087,79.048-1.7,115.285-1.006,20.338-.928,42-2.842,62.277-.017.175-.284.172-.276-.008.817-18.3.535-37.907,1.327-56.21" transform="translate(8820.076 -8995.504)" fill="#37474f"/>
      <path id="Path_9759" data-name="Path 9759" d="M59.957,312.492s.514,60.857.513,60.9c.038,11.638.277,21.841.894,27.108a.2.2,0,0,0,.012.085c.23,1.987.514,3.255.871,3.593.026.028.041.057.068.072,3.47,2.335,99.761,3.741,99.761,3.741L159.2,394.6l-38.749-19.827-1.091-60.826Z" transform="translate(8824.165 -8937.207)" fill="#eb9481"/>
      <path id="Path_9766" data-name="Path 9766" d="M43.192,179.87C43.207,179.912,70.8,266.9,71.3,282.9c.426,13.636-1.319,153.574-1.319,153.574l69.9.416-7-156.919S107.568,180.442,90.919,115.45H15.558s.656,34.036,16.135,58.651c0,0,7.009,3.246,11.5,5.769" transform="translate(8810.178 -8999.281)" fill="#263238"/>
      <path id="Path_9768" data-name="Path 9768" d="M71.516,146.676c2.491,8.316,4.593,16.756,6.822,25.146q3.373,12.685,6.717,25.379c4.308,16.371,8.566,32.771,11.8,49.4a298.606,298.606,0,0,1,5.588,50.625c.372,17.327.011,34.679-.107,52.007-.12,17.426-.266,34.847-.567,52.269-.037,2.167-.084,4.333-.163,6.5a.163.163,0,0,1-.325-.008c-.463-17.328-.216-34.693-.16-52.025s.287-34.679.139-52.014a312.02,312.02,0,0,0-4.446-51.344c-2.922-16.681-7.031-33.122-11.292-49.5q-3.645-14.017-7.31-28.029c-2.441-9.408-5.051-18.793-7.2-28.275a.259.259,0,0,1,.5-.125" transform="translate(8827.646 -8989.504)" fill="#37474f"/>
      <path id="Path_9769" data-name="Path 9769" d="M59.336,167.687a62.439,62.439,0,0,1-10.381-.94,101.849,101.849,0,0,1-10.057-2.79c-3.192-.939-6.587-1.085-9.86-1.611a34.559,34.559,0,0,1-9.667-2.88c-.142-.07-.263.145-.12.218a60.139,60.139,0,0,0,9.264,4.016c3.314,1.045,6.778,1.189,10.142,2.012,3.46.846,6.792,1.971,10.351,2.382a37.488,37.488,0,0,0,10.365-.175c.137-.022.089-.229-.037-.231" transform="translate(8811.321 -8985.419)" fill="#37474f"/>
      <path id="Path_9770" data-name="Path 9770" d="M58.281,235.456c-.661-2.577-1.285-5.164-1.984-7.732-1.415-5.2-2.851-10.394-4.421-15.545-3.121-10.236-6.066-20.537-9.368-30.718-1.871-5.773-3.549-11.621-5.747-17.282a.116.116,0,0,0-.222.067c1.1,5.279,2.667,10.443,4.066,15.65s2.9,10.377,4.4,15.552c2.981,10.28,5.9,20.583,9.155,30.781.913,2.86,1.85,5.71,2.838,8.546,1.007,2.894,1.8,5.885,3.01,8.706a.13.13,0,0,0,.249-.074c-.464-2.689-1.294-5.309-1.971-7.951" transform="translate(8816.786 -8983.955)" fill="#37474f"/>
      <path id="Path_9771" data-name="Path 9771" d="M198.428,137.927l6.659-19.841L190.3,111.805a60.776,60.776,0,0,0-2.122-23.317l13.494-8.078-9.325-18.758-14.841,6.014c5.275,4.349-14.734-12.084-17.941-15.417l3.729-14.811-19.841-6.661L137.48,44.832,113.132,46.5l-7.367-12.313L87.024,43.5l5.364,13.281a60.372,60.372,0,0,0-16.53,19.059L62.784,72.55,56.119,92.4l12.572,5.339a60.372,60.372,0,0,0,2.172,25.575L59.53,130.092l9.32,18.729,12.73-5.134c5.239,6.6,19.668,16.153,19.668,16.153l-3.326,13.229,19.841,6.661,5.663-13.312,24.546-2.585,7.465,12.481L174.192,167l-5.785-14.331,15.074-18.485Zm-76.956-2.918a31.131,31.131,0,0,1-20.637-38.883l38.883-20.637,20.649,38.887a31.132,31.132,0,0,1-38.895,20.633" transform="translate(8822.956 -9025.956)" fill="#dbdbdb"/>
      <path id="Path_9772" data-name="Path 9772" d="M73.432,65.823c-5.075.487-13.474-8.953-15.968-15.5-.168-.45,1.074-4.759,2.338-10.069.755-3.224,1.519-6.833,1.978-10.177l20.269,7.976A53.734,53.734,0,0,0,78.26,50.613,7.463,7.463,0,0,0,78.215,52c0,.064.007.143,0,.231.067,2.664.122,13.114-4.781,13.587" transform="translate(8823.374 -9026.176)" fill="#edbabe"/>
      <path id="Path_9773" data-name="Path 9773" d="M77.035,51.944c0,.059,0,.15,0,.239A13.351,13.351,0,0,1,74.858,52L61.193,30.262,80.874,38l-3.84,14.183c-.051.492-.028-.676,0-.239" transform="translate(8824.554 -9026.118)" fill="#263238"/>
      <path id="Path_9774" data-name="Path 9774" d="M55.313,17.73c-.229-3.273,5.7,18.385,12.461,32.421l25.743-5.9s-5.953-36.7-12.552-40.06C71.247-.761,56.843,6.241,55.313,17.73" transform="translate(8822.699 -9034.84)" fill="#edbabe"/>
      <path id="Path_9775" data-name="Path 9775" d="M61.093,38.942c5.613-1.554,6.16-9.095,3.019-13.9L75.918,9.889l12.371,2.095,2.105,3.536-3.4-7.8L79.142,0,70.154,1.832l-9.546.943-5.6,8.258-6.14,9.489,4.447,8.057,1.369,6.7s4.722,4.129,6.407,3.662" transform="translate(8820.672 -9035.652)" fill="#263238"/>
      <path id="Path_9776" data-name="Path 9776" d="M63.638,27.667l-8.909-3.7,6.6,12.3a3.8,3.8,0,0,0,4.63-2.938Z" transform="translate(8822.518 -9028.101)" fill="#edbabe"/>
      <path id="Path_9777" data-name="Path 9777" d="M55.985,25.973a.051.051,0,0,0,0,.1l5.11,4.589-2.322.419c-.058.062.026.154.1.125l2.676.331,1.978,1.523-.145-.112c-.011-.018.155.13.145.112,0,0-3.95-7.414-7.536-7.089" transform="translate(8822.9 -9027.473)" fill="#263238"/>
      <path id="Path_9778" data-name="Path 9778" d="M56.009,45.678l1.08-8.2L79.74,50.516l.663,8.052Z" transform="translate(8822.921 -9023.846)" fill="#ebebeb"/>
      <path id="Path_9779" data-name="Path 9779" d="M6.34,153.855c.171.292,97.053,18.023,98.119,17.219,1.489-1.132,4.872-96.214-10.082-117.8L71.172,42.94C57.539,49.34,47.688,66.219,41.48,75.971,36.884,83.2,30.6,95.815,24.633,108.84,14.774,130.294,5.736,152.8,6.34,153.855" transform="translate(8807.265 -9022.124)" fill="#2f53b4"/>
      <path id="Path_9780" data-name="Path 9780" d="M63.764,66.151c7.185,24.462,20.618,62.229,36.111,69.423,7.589,3.524,48.255-5.415,60.54-8.357,5.213-1.249-10.824-36.933-16.555-36.973-5.635-.039-30.07,7.121-32.913,5.292-3.6-2.318-16.016-22.333-29.97-39.722Z" transform="translate(8825.364 -9018.068)" fill="#edbabe"/>
      <path id="Path_9781" data-name="Path 9781" d="M173.884,73.642c1.441,2.671-2.505,5.478-2.505,5.478l4.838,3.844-2.529,7.554,4.457,4.868-2.346,8.252,1.223,6.75-16.195,11.5-27.52,3.173-13.859-36.8,30.221-18.32Z" transform="translate(8842.906 -9013.62)" fill="#edbabe"/>
      <path id="Path_9782" data-name="Path 9782" d="M163.624,76.84c-6.7-.167-13.428,1.269-19.9,2.726a.115.115,0,0,0,.053.224c6.425-1.524,13.411-1.368,19.883-2.633a.161.161,0,0,0-.032-.317" transform="translate(8850.526 -9011.449)" fill="#263238"/>
      <path id="Path_9783" data-name="Path 9783" d="M164.878,85.255a17.436,17.436,0,0,0-4.476.919q-2.339.649-4.657,1.379-4.639,1.456-9.2,3.143c-.134.05-.091.268.054.224,3.084-.961,6.182-1.878,9.3-2.709q2.343-.625,4.7-1.211a20.843,20.843,0,0,0,4.38-1.312.232.232,0,0,0-.1-.433" transform="translate(8851.416 -9008.794)" fill="#263238"/>
      <path id="Path_9784" data-name="Path 9784" d="M166.208,95.593a12.186,12.186,0,0,0-3.987,1.042q-2.1.708-4.205,1.393c-2.812.911-5.62,1.823-8.46,2.635-.142.041-.091.264.053.224,2.889-.811,5.789-1.583,8.673-2.421q2.122-.617,4.238-1.257a11.4,11.4,0,0,0,3.74-1.475.081.081,0,0,0-.051-.139" transform="translate(8852.365 -9005.538)" fill="#263238"/>
      <path id="Path_9785" data-name="Path 9785" d="M135.21,90.55l13.507,45.811H91.434S65.995,82.946,62.218,62.768L81.193,54.64c12.95,16.422,29.448,39.472,30.461,40.26s23.556-4.35,23.556-4.35" transform="translate(8824.877 -9018.438)" fill="#2f53b4"/>
      <path id="Path_9786" data-name="Path 9786" d="M117.135,104.912c-.926-3.2-1.925-6.37-2.925-9.545-.48-1.523-.947-3.053-1.475-4.561-.569-1.623-1.024-3.335-1.706-4.912a.094.094,0,0,0-.18.051c.272,1.7.813,3.378,1.2,5.054.36,1.554.794,3.094,1.209,4.635.865,3.213,1.729,6.425,2.668,9.617,1.881,6.394,3.937,12.712,6.077,19.025a.125.125,0,0,0,.241-.067c-1.591-6.469-3.256-12.9-5.11-19.3" transform="translate(8840.196 -9008.612)" fill="#263238"/>
      <path id="Path_9787" data-name="Path 9787" d="M88.141,125.659c-.235.079-19.732-44.638-19.732-44.638-1.719-5.669-3.4-11.35-5.126-17.017-.016-.053-.107-.038-.1.018.6,3.518,1.356,6.992,2.226,10.443-.1-.226-.193-.456-.3-.681-.647-1.378-1.341-2.734-2.03-4.091-.042-.082-.179-.014-.145.071.572,1.441,1.132,2.894,1.765,4.312.4.9.848,1.773,1.285,2.652.4,1.5.79,3,1.276,4.48,0,0,20.292,43.821,20.642,44.528.071.145.387-.13.235-.079" transform="translate(8825.103 -9015.499)" fill="#263238"/>
      <path id="Path_9860" data-name="Path 9860" d="M58.281,235.456c-.661-2.577-1.285-5.164-1.984-7.732-1.415-5.2-2.851-10.394-4.421-15.545-3.121-10.236-6.066-20.537-9.368-30.718-1.871-5.773-3.549-11.621-5.747-17.282a.116.116,0,0,0-.222.067c1.1,5.279,2.667,10.443,4.066,15.65s2.9,10.377,4.4,15.552c2.981,10.28,5.9,20.583,9.155,30.781.913,2.86,1.85,5.71,2.838,8.546,1.007,2.894,1.8,5.885,3.01,8.706a.13.13,0,0,0,.249-.074c-.464-2.689-1.294-5.309-1.971-7.951" transform="translate(8816.786 -8983.955)" fill="#37474f"/>
      <path id="Path_9862" data-name="Path 9862" d="M73.432,65.823c-5.075.487-13.474-8.953-15.968-15.5-.168-.45,1.074-4.759,2.338-10.069.755-3.224,1.519-6.833,1.978-10.177l20.269,7.976A53.734,53.734,0,0,0,78.26,50.613,7.463,7.463,0,0,0,78.215,52c0,.064.007.143,0,.231.067,2.664.122,13.114-4.781,13.587" transform="translate(8823.374 -9026.176)" fill="#edbabe"/>
      <path id="Path_9863" data-name="Path 9863" d="M77.035,51.944c0,.059,0,.15,0,.239A13.351,13.351,0,0,1,74.858,52L61.193,30.262,80.874,38l-3.84,14.183c-.051.492-.028-.676,0-.239" transform="translate(8824.554 -9026.118)" fill="#263238"/>
      <path id="Path_9864" data-name="Path 9864" d="M55.313,17.73c-.229-3.273,5.7,18.385,12.461,32.421l25.743-5.9s-5.953-36.7-12.552-40.06C71.247-.761,56.843,6.241,55.313,17.73" transform="translate(8822.699 -9034.84)" fill="#edbabe"/>
      <path id="Path_9865" data-name="Path 9865" d="M61.093,38.942c5.613-1.554,6.16-9.095,3.019-13.9L75.918,9.889l12.371,2.095,2.105,3.536-3.4-7.8L79.142,0,70.154,1.832l-9.546.943-5.6,8.258-6.14,9.489,4.447,8.057,1.369,6.7s4.722,4.129,6.407,3.662" transform="translate(8820.672 -9035.652)" fill="#263238"/>
      <path id="Path_9866" data-name="Path 9866" d="M63.638,27.667l-8.909-3.7,6.6,12.3a3.8,3.8,0,0,0,4.63-2.938Z" transform="translate(8822.518 -9028.101)" fill="#edbabe"/>
      <path id="Path_9867" data-name="Path 9867" d="M55.985,25.973a.051.051,0,0,0,0,.1l5.11,4.589-2.322.419c-.058.062.026.154.1.125l2.676.331,1.978,1.523-.145-.112c-.011-.018.155.13.145.112,0,0-3.95-7.414-7.536-7.089" transform="translate(8822.9 -9027.473)" fill="#263238"/>
    </g>
    <path id="Path_12977" data-name="Path 12977" d="M9178.007-8932.078l-475.171-210.378,176.743,576.86Z" transform="translate(-1.879 2.89)" fill="none" stroke="#1f57a3" stroke-width="1" stroke-dasharray="2"/>
  </g>
</svg>
