<?xml version="1.0" encoding="UTF-8"?>
<svg version="1.1" xmlns="http://www.w3.org/2000/svg" width="512" height="512">
<path d="M0 0 C2 3 2 3 1.9140625 5.8828125 C0.79621663 9.69495356 -0.71910095 11.19735888 -3.625 13.875 C-6.7530363 16.84330679 -9.7724379 19.77350914 -12.5625 23.0625 C-15.78950069 26.83619257 -19.27535734 30.29193457 -22.80859375 33.77734375 C-25.42101068 36.4270144 -27.83302621 39.21172803 -30.25390625 42.03515625 C-32.65209001 44.73378361 -35.21611524 47.24314575 -37.8125 49.75 C-39.70532164 51.69690226 -41.48689757 53.68446948 -43.265625 55.734375 C-46.98333185 60.01429098 -50.84776499 64.13865728 -54.75 68.25 C-61.23261102 75.10889065 -67.64160097 82.02596173 -74 89 C-74.93314024 90.01734324 -75.86674345 91.03426201 -76.80078125 92.05078125 C-81.81284482 97.50559439 -86.79878208 102.98236357 -91.74609375 108.49609375 C-94.19450473 111.21607891 -96.65900079 113.92095561 -99.125 116.625 C-102.51424992 120.34796068 -105.85434753 124.10594716 -109.15625 127.90625 C-111.40876457 130.46419027 -113.70317092 132.9817898 -116 135.5 C-121.01913521 141.00899075 -125.94120436 146.58723517 -130.78125 152.25390625 C-131.8124583 153.46097313 -132.84370948 154.66800337 -133.875 155.875 C-134.39473389 156.48359863 -134.91446777 157.09219727 -135.44995117 157.71923828 C-138.47905595 161.25642957 -141.55156303 164.74401054 -144.6875 168.1875 C-147.71712868 171.52227114 -150.60608092 174.93287639 -153.4375 178.4375 C-156.51336588 182.24087503 -159.68753166 185.90082652 -163 189.5 C-167.03954818 193.89378548 -170.84679619 198.41838824 -174.59375 203.0625 C-177.2977877 206.36353303 -180.08111232 209.58765213 -182.875 212.8125 C-187.38531057 218.03127748 -191.69838923 223.36973661 -195.92529297 228.81958008 C-199.02263829 232.79830643 -202.22006321 236.6707915 -205.5 240.5 C-209.7122263 245.42258759 -213.75906247 250.44935278 -217.73657227 255.56298828 C-220.70470375 259.37220375 -223.72650958 263.13085018 -226.78881836 266.86474609 C-232.64198257 274.00156737 -238.27255251 281.2649661 -243.7734375 288.67578125 C-246.77052852 292.70917051 -249.82185954 296.69950588 -252.87866211 300.68774414 C-260.77463032 310.99379443 -268.48293278 321.41476183 -276 332 C-276.40243927 332.56360229 -276.80487854 333.12720459 -277.21951294 333.70788574 C-285.0644212 344.69795171 -292.67060822 355.83422669 -300.15405273 367.07324219 C-301.92855418 369.73657331 -303.70918508 372.39573208 -305.49023438 375.0546875 C-312.11344373 384.97314104 -318.55626069 394.9763299 -324.74168396 405.17474365 C-331.73323771 416.64200196 -331.73323771 416.64200196 -335.875 417.8125 C-342.87397861 415.99276556 -346.00913834 407.44221165 -349.5 401.5625 C-354.29724694 393.35310081 -358.90748552 385.03778535 -363.53613281 376.73266602 C-369.36549091 366.29509169 -375.37925825 355.97033362 -381.43945312 345.66552734 C-382.84210855 343.26969005 -384.22967063 340.86613283 -385.609375 338.45703125 C-408.66438386 298.3573185 -437.92423769 258.8308205 -482.13476562 241.01196289 C-484 240 -484 240 -486 237 C-486.0625 234 -486.0625 234 -485 231 C-479.9205749 228.30666262 -475.18134552 227.31418403 -469.5 226.75 C-468.71463867 226.66991699 -467.92927734 226.58983398 -467.12011719 226.50732422 C-442.92514155 224.3224446 -420.70669264 232.83300374 -402 248 C-388.90822045 259.12979624 -376.99108813 271.79238984 -366.265625 285.19921875 C-363.61275228 288.4787183 -360.87761899 291.67919973 -358.125 294.875 C-354.06744103 299.59085734 -350.02061983 304.31508108 -346 309.0625 C-345.55543457 309.58634277 -345.11086914 310.11018555 -344.65283203 310.64990234 C-342.04972053 313.7264877 -339.50338225 316.84179785 -337 320 C-335.78134766 318.37513021 -334.56272679 316.7502368 -333.34423828 315.12524414 C-332.26500439 313.68654108 -331.18523612 312.24823876 -330.10498047 310.81030273 C-327.3988462 307.20668212 -324.69931261 303.59881699 -322.0234375 299.97265625 C-314.67284669 290.03765074 -306.94388622 280.46585672 -299 271 C-298.25919189 270.11634766 -298.25919189 270.11634766 -297.50341797 269.21484375 C-294.80659275 266.00287368 -292.09573423 262.80320741 -289.37402344 259.61230469 C-287.92609978 257.91328411 -286.48259688 256.2105632 -285.0390625 254.5078125 C-279.30415377 247.76091537 -273.45072993 241.15207391 -267.4375 234.65234375 C-265.48256122 232.52509466 -263.57117955 230.37727748 -261.6875 228.1875 C-257.73429416 223.62901862 -253.59414587 219.24603415 -249.46777344 214.8449707 C-246.59074821 211.77627031 -243.71948621 208.70375003 -240.8828125 205.59765625 C-235.27780187 199.46181923 -229.57414151 193.47053086 -223.62670898 187.66357422 C-220.87959204 184.96274956 -218.27682643 182.19809608 -215.76855469 179.27294922 C-212.19781562 175.17437424 -208.44636685 171.30135731 -204.59765625 167.46484375 C-203.91626083 166.78249161 -203.23486542 166.10013947 -202.53282166 165.39710999 C-201.10294259 163.96655563 -199.67182089 162.53724233 -198.23950195 161.10913086 C-196.06802289 158.94300926 -193.90193675 156.77159826 -191.73632812 154.59960938 C-190.33625798 153.20020013 -188.93587762 151.80110116 -187.53515625 150.40234375 C-186.89844498 149.76360825 -186.2617337 149.12487274 -185.60572815 148.46678162 C-181.81557058 144.69597279 -177.91647505 141.1108493 -173.85435486 137.63417053 C-170.57993662 134.74855359 -167.55244665 131.61670868 -164.5 128.5 C-160.16205458 124.07072941 -155.74457173 119.84391903 -151.04882812 115.79492188 C-147.43796408 112.63154337 -143.9784887 109.30741549 -140.5 106 C-132.91527146 98.7882909 -125.08993791 91.91113167 -117.125 85.125 C-112.96793311 81.57598667 -108.85424498 77.99325978 -104.8125 74.3125 C-100.62630699 70.51492751 -96.29980986 66.92934056 -91.90625 63.375 C-89.34683134 61.28343207 -86.82367784 59.15889954 -84.31103516 57.01196289 C-77.65713007 51.32762684 -70.85182455 45.87232654 -63.93798828 40.50830078 C-61.86797094 38.8972442 -59.8066458 37.27548605 -57.74609375 35.65234375 C-47.3569445 27.48846413 -36.77193455 19.65027189 -26 12 C-25.20480957 11.4337793 -24.40961914 10.86755859 -23.59033203 10.28417969 C-21.22873732 8.60349484 -18.86504868 6.92582032 -16.5 5.25 C-15.77546631 4.73614746 -15.05093262 4.22229492 -14.30444336 3.69287109 C-8.74415247 -0.22959307 -6.80820486 -1.45890104 0 0 Z " fill="#000000" transform="translate(498,48)"/>
</svg>
